<?xml version="1.0" encoding="UTF-8" standalone="no"?>
<!DOCTYPE svg PUBLIC "-//W3C//DTD SVG 1.1//EN"
 "http://www.w3.org/Graphics/SVG/1.1/DTD/svg11.dtd">
<!-- Generated by graphviz version 15.1.0 (20260618.0150)
 -->
<!-- Title: vqvae_with_ste Pages: 1 -->
<svg width="240pt" height="864pt"
 viewBox="0.00 0.00 240.00 864.00" xmlns="http://www.w3.org/2000/svg" xmlns:xlink="http://www.w3.org/1999/xlink">
<g id="graph0" class="graph" transform="scale(0.929032 0.929032) rotate(0) translate(4 926)">
<title>vqvae_with_ste</title>
<polygon fill="white" stroke="none" points="-4,4 -4,-926 254.75,-926 254.75,4 -4,4"/>
<!-- 0 -->
<g id="node1" class="node">
<title>0</title>
<polygon fill="lightyellow" stroke="none" points="128.88,-922 16.62,-922 16.62,-886.5 128.88,-886.5 128.88,-922"/>
<polygon fill="none" stroke="black" points="16.62,-886.5 16.62,-922 78.38,-922 78.38,-886.5 16.62,-886.5"/>
<text xml:space="preserve" text-anchor="start" x="21.62" y="-906.5" font-family="Linux libertine" font-size="10.00">input&#45;tensor</text>
<text xml:space="preserve" text-anchor="start" x="31" y="-893.75" font-family="Linux libertine" font-size="10.00">depth:0</text>
<polygon fill="none" stroke="black" points="78.38,-886.5 78.38,-922 128.88,-922 128.88,-886.5 78.38,-886.5"/>
<text xml:space="preserve" text-anchor="start" x="83.38" y="-900.12" font-family="Linux libertine" font-size="10.00">(1, 1, 64)</text>
</g>
<!-- 1 -->
<g id="node2" class="node">
<title>1</title>
<polygon fill="#c1ffc1" stroke="none" points="145.5,-850.5 0,-850.5 0,-805 145.5,-805 145.5,-850.5"/>
<polygon fill="none" stroke="black" points="0,-805 0,-850.5 43,-850.5 43,-805 0,-805"/>
<text xml:space="preserve" text-anchor="start" x="5.38" y="-830" font-family="Linux libertine" font-size="10.00">Conv1d</text>
<text xml:space="preserve" text-anchor="start" x="5" y="-817.25" font-family="Linux libertine" font-size="10.00">depth:2</text>
<polygon fill="none" stroke="black" points="43,-827.75 43,-850.5 86.75,-850.5 86.75,-827.75 43,-827.75"/>
<text xml:space="preserve" text-anchor="start" x="52.5" y="-835" font-family="Linux libertine" font-size="10.00">input:</text>
<polygon fill="none" stroke="black" points="86.75,-827.75 86.75,-850.5 145.5,-850.5 145.5,-827.75 86.75,-827.75"/>
<text xml:space="preserve" text-anchor="start" x="94.38" y="-835" font-family="Linux libertine" font-size="10.00">(1, 1, 64) </text>
<polygon fill="none" stroke="black" points="43,-805 43,-827.75 86.75,-827.75 86.75,-805 43,-805"/>
<text xml:space="preserve" text-anchor="start" x="48" y="-812.25" font-family="Linux libertine" font-size="10.00">output: </text>
<polygon fill="none" stroke="black" points="86.75,-805 86.75,-827.75 145.5,-827.75 145.5,-805 86.75,-805"/>
<text xml:space="preserve" text-anchor="start" x="91.75" y="-812.25" font-family="Linux libertine" font-size="10.00">(1, 64, 64) </text>
</g>
<!-- 0&#45;&gt;1 -->
<g id="edge1" class="edge">
<title>0&#45;&gt;1</title>
<path fill="none" stroke="black" d="M72.75,-886.72C72.75,-879.35 72.75,-870.39 72.75,-861.75"/>
<polygon fill="black" stroke="black" points="76.25,-861.85 72.75,-851.85 69.25,-861.85 76.25,-861.85"/>
</g>
<!-- 2 -->
<g id="node3" class="node">
<title>2</title>
<polygon fill="#c1ffc1" stroke="none" points="145.5,-769 0,-769 0,-723.5 145.5,-723.5 145.5,-769"/>
<polygon fill="none" stroke="black" points="0,-723.5 0,-769 43,-769 43,-723.5 0,-723.5"/>
<text xml:space="preserve" text-anchor="start" x="9.88" y="-748.5" font-family="Linux libertine" font-size="10.00">ReLU</text>
<text xml:space="preserve" text-anchor="start" x="5" y="-735.75" font-family="Linux libertine" font-size="10.00">depth:2</text>
<polygon fill="none" stroke="black" points="43,-746.25 43,-769 86.75,-769 86.75,-746.25 43,-746.25"/>
<text xml:space="preserve" text-anchor="start" x="52.5" y="-753.5" font-family="Linux libertine" font-size="10.00">input:</text>
<polygon fill="none" stroke="black" points="86.75,-746.25 86.75,-769 145.5,-769 145.5,-746.25 86.75,-746.25"/>
<text xml:space="preserve" text-anchor="start" x="91.75" y="-753.5" font-family="Linux libertine" font-size="10.00">(1, 64, 64) </text>
<polygon fill="none" stroke="black" points="43,-723.5 43,-746.25 86.75,-746.25 86.75,-723.5 43,-723.5"/>
<text xml:space="preserve" text-anchor="start" x="48" y="-730.75" font-family="Linux libertine" font-size="10.00">output: </text>
<polygon fill="none" stroke="black" points="86.75,-723.5 86.75,-746.25 145.5,-746.25 145.5,-723.5 86.75,-723.5"/>
<text xml:space="preserve" text-anchor="start" x="91.75" y="-730.75" font-family="Linux libertine" font-size="10.00">(1, 64, 64) </text>
</g>
<!-- 1&#45;&gt;2 -->
<g id="edge2" class="edge">
<title>1&#45;&gt;2</title>
<path fill="none" stroke="black" d="M72.75,-805.03C72.75,-797.4 72.75,-788.65 72.75,-780.31"/>
<polygon fill="black" stroke="black" points="76.25,-780.46 72.75,-770.46 69.25,-780.46 76.25,-780.46"/>
</g>
<!-- 3 -->
<g id="node4" class="node">
<title>3</title>
<polygon fill="#c1ffc1" stroke="none" points="145.5,-687.5 0,-687.5 0,-642 145.5,-642 145.5,-687.5"/>
<polygon fill="none" stroke="black" points="0,-642 0,-687.5 43,-687.5 43,-642 0,-642"/>
<text xml:space="preserve" text-anchor="start" x="5.38" y="-667" font-family="Linux libertine" font-size="10.00">Conv1d</text>
<text xml:space="preserve" text-anchor="start" x="5" y="-654.25" font-family="Linux libertine" font-size="10.00">depth:2</text>
<polygon fill="none" stroke="black" points="43,-664.75 43,-687.5 86.75,-687.5 86.75,-664.75 43,-664.75"/>
<text xml:space="preserve" text-anchor="start" x="52.5" y="-672" font-family="Linux libertine" font-size="10.00">input:</text>
<polygon fill="none" stroke="black" points="86.75,-664.75 86.75,-687.5 145.5,-687.5 145.5,-664.75 86.75,-664.75"/>
<text xml:space="preserve" text-anchor="start" x="91.75" y="-672" font-family="Linux libertine" font-size="10.00">(1, 64, 64) </text>
<polygon fill="none" stroke="black" points="43,-642 43,-664.75 86.75,-664.75 86.75,-642 43,-642"/>
<text xml:space="preserve" text-anchor="start" x="48" y="-649.25" font-family="Linux libertine" font-size="10.00">output: </text>
<polygon fill="none" stroke="black" points="86.75,-642 86.75,-664.75 145.5,-664.75 145.5,-642 86.75,-642"/>
<text xml:space="preserve" text-anchor="start" x="91.75" y="-649.25" font-family="Linux libertine" font-size="10.00">(1, 64, 64) </text>
</g>
<!-- 2&#45;&gt;3 -->
<g id="edge3" class="edge">
<title>2&#45;&gt;3</title>
<path fill="none" stroke="black" d="M72.75,-723.53C72.75,-715.9 72.75,-707.15 72.75,-698.81"/>
<polygon fill="black" stroke="black" points="76.25,-698.96 72.75,-688.96 69.25,-698.96 76.25,-698.96"/>
</g>
<!-- 4 -->
<g id="node5" class="node">
<title>4</title>
<polygon fill="#c1ffc1" stroke="none" points="250.75,-606 100.75,-606 100.75,-560.5 250.75,-560.5 250.75,-606"/>
<polygon fill="none" stroke="black" points="100.75,-560.5 100.75,-606 148.25,-606 148.25,-560.5 100.75,-560.5"/>
<text xml:space="preserve" text-anchor="start" x="105.75" y="-585.5" font-family="Linux libertine" font-size="10.00">Quantize</text>
<text xml:space="preserve" text-anchor="start" x="108" y="-572.75" font-family="Linux libertine" font-size="10.00">depth:2</text>
<polygon fill="none" stroke="black" points="148.25,-583.25 148.25,-606 192,-606 192,-583.25 148.25,-583.25"/>
<text xml:space="preserve" text-anchor="start" x="157.75" y="-590.5" font-family="Linux libertine" font-size="10.00">input:</text>
<polygon fill="none" stroke="black" points="192,-583.25 192,-606 250.75,-606 250.75,-583.25 192,-583.25"/>
<text xml:space="preserve" text-anchor="start" x="197" y="-590.5" font-family="Linux libertine" font-size="10.00">(1, 64, 64) </text>
<polygon fill="none" stroke="black" points="148.25,-560.5 148.25,-583.25 192,-583.25 192,-560.5 148.25,-560.5"/>
<text xml:space="preserve" text-anchor="start" x="153.25" y="-567.75" font-family="Linux libertine" font-size="10.00">output: </text>
<polygon fill="none" stroke="black" points="192,-560.5 192,-583.25 250.75,-583.25 250.75,-560.5 192,-560.5"/>
<text xml:space="preserve" text-anchor="start" x="197" y="-567.75" font-family="Linux libertine" font-size="10.00">(1, 64, 64) </text>
</g>
<!-- 3&#45;&gt;4 -->
<g id="edge4" class="edge">
<title>3&#45;&gt;4</title>
<path fill="none" stroke="black" d="M100.9,-642.03C112.59,-633 126.32,-622.4 138.81,-612.76"/>
<polygon fill="black" stroke="black" points="140.66,-615.75 146.44,-606.87 136.39,-610.21 140.66,-615.75"/>
</g>
<!-- 5 -->
<g id="node6" class="node">
<title>5</title>
<polygon fill="aliceblue" stroke="none" points="224.75,-524.5 62.75,-524.5 62.75,-479 224.75,-479 224.75,-524.5"/>
<polygon fill="none" stroke="black" points="62.75,-479 62.75,-524.5 105.75,-524.5 105.75,-479 62.75,-479"/>
<text xml:space="preserve" text-anchor="start" x="76.75" y="-504" font-family="Linux libertine" font-size="10.00">sub</text>
<text xml:space="preserve" text-anchor="start" x="67.75" y="-491.25" font-family="Linux libertine" font-size="10.00">depth:2</text>
<polygon fill="none" stroke="black" points="105.75,-501.75 105.75,-524.5 149.5,-524.5 149.5,-501.75 105.75,-501.75"/>
<text xml:space="preserve" text-anchor="start" x="115.25" y="-509" font-family="Linux libertine" font-size="10.00">input:</text>
<polygon fill="none" stroke="black" points="149.5,-501.75 149.5,-524.5 224.75,-524.5 224.75,-501.75 149.5,-501.75"/>
<text xml:space="preserve" text-anchor="start" x="154.5" y="-509" font-family="Linux libertine" font-size="10.00">2 x (1, 64, 64) </text>
<polygon fill="none" stroke="black" points="105.75,-479 105.75,-501.75 149.5,-501.75 149.5,-479 105.75,-479"/>
<text xml:space="preserve" text-anchor="start" x="110.75" y="-486.25" font-family="Linux libertine" font-size="10.00">output: </text>
<polygon fill="none" stroke="black" points="149.5,-479 149.5,-501.75 224.75,-501.75 224.75,-479 149.5,-479"/>
<text xml:space="preserve" text-anchor="start" x="162.75" y="-486.25" font-family="Linux libertine" font-size="10.00">(1, 64, 64) </text>
</g>
<!-- 3&#45;&gt;5 -->
<g id="edge5" class="edge">
<title>3&#45;&gt;5</title>
<path fill="none" stroke="black" d="M73.33,-642.12C74.67,-620.45 78.87,-586.66 91.75,-560.5 96.66,-550.53 103.79,-540.99 111.21,-532.65"/>
<polygon fill="black" stroke="black" points="113.62,-535.19 117.93,-525.51 108.53,-530.4 113.62,-535.19"/>
</g>
<!-- 7 -->
<g id="node8" class="node">
<title>7</title>
<polygon fill="aliceblue" stroke="none" points="165.75,-361.5 3.75,-361.5 3.75,-316 165.75,-316 165.75,-361.5"/>
<polygon fill="none" stroke="black" points="3.75,-316 3.75,-361.5 46.75,-361.5 46.75,-316 3.75,-316"/>
<text xml:space="preserve" text-anchor="start" x="17.38" y="-341" font-family="Linux libertine" font-size="10.00">add</text>
<text xml:space="preserve" text-anchor="start" x="8.75" y="-328.25" font-family="Linux libertine" font-size="10.00">depth:2</text>
<polygon fill="none" stroke="black" points="46.75,-338.75 46.75,-361.5 90.5,-361.5 90.5,-338.75 46.75,-338.75"/>
<text xml:space="preserve" text-anchor="start" x="56.25" y="-346" font-family="Linux libertine" font-size="10.00">input:</text>
<polygon fill="none" stroke="black" points="90.5,-338.75 90.5,-361.5 165.75,-361.5 165.75,-338.75 90.5,-338.75"/>
<text xml:space="preserve" text-anchor="start" x="95.5" y="-346" font-family="Linux libertine" font-size="10.00">2 x (1, 64, 64) </text>
<polygon fill="none" stroke="black" points="46.75,-316 46.75,-338.75 90.5,-338.75 90.5,-316 46.75,-316"/>
<text xml:space="preserve" text-anchor="start" x="51.75" y="-323.25" font-family="Linux libertine" font-size="10.00">output: </text>
<polygon fill="none" stroke="black" points="90.5,-316 90.5,-338.75 165.75,-338.75 165.75,-316 90.5,-316"/>
<text xml:space="preserve" text-anchor="start" x="103.75" y="-323.25" font-family="Linux libertine" font-size="10.00">(1, 64, 64) </text>
</g>
<!-- 3&#45;&gt;7 -->
<g id="edge6" class="edge">
<title>3&#45;&gt;7</title>
<path fill="none" stroke="black" d="M67.31,-642.3C56.61,-596.53 35.73,-486.25 57.75,-397.5 59.9,-388.84 63.37,-379.9 67.13,-371.72"/>
<polygon fill="black" stroke="black" points="70.21,-373.37 71.47,-362.85 63.93,-370.3 70.21,-373.37"/>
</g>
<!-- 4&#45;&gt;5 -->
<g id="edge7" class="edge">
<title>4&#45;&gt;5</title>
<path fill="none" stroke="black" d="M167.01,-560.53C163.83,-552.64 160.17,-543.55 156.71,-534.95"/>
<polygon fill="black" stroke="black" points="160.03,-533.82 153.05,-525.85 153.54,-536.44 160.03,-533.82"/>
</g>
<!-- 6 -->
<g id="node7" class="node">
<title>6</title>
<polygon fill="aliceblue" stroke="none" points="212.5,-443 67,-443 67,-397.5 212.5,-397.5 212.5,-443"/>
<polygon fill="none" stroke="black" points="67,-397.5 67,-443 110,-443 110,-397.5 67,-397.5"/>
<text xml:space="preserve" text-anchor="start" x="74.25" y="-422.5" font-family="Linux libertine" font-size="10.00">detach</text>
<text xml:space="preserve" text-anchor="start" x="72" y="-409.75" font-family="Linux libertine" font-size="10.00">depth:2</text>
<polygon fill="none" stroke="black" points="110,-420.25 110,-443 153.75,-443 153.75,-420.25 110,-420.25"/>
<text xml:space="preserve" text-anchor="start" x="119.5" y="-427.5" font-family="Linux libertine" font-size="10.00">input:</text>
<polygon fill="none" stroke="black" points="153.75,-420.25 153.75,-443 212.5,-443 212.5,-420.25 153.75,-420.25"/>
<text xml:space="preserve" text-anchor="start" x="158.75" y="-427.5" font-family="Linux libertine" font-size="10.00">(1, 64, 64) </text>
<polygon fill="none" stroke="black" points="110,-397.5 110,-420.25 153.75,-420.25 153.75,-397.5 110,-397.5"/>
<text xml:space="preserve" text-anchor="start" x="115" y="-404.75" font-family="Linux libertine" font-size="10.00">output: </text>
<polygon fill="none" stroke="black" points="153.75,-397.5 153.75,-420.25 212.5,-420.25 212.5,-397.5 153.75,-397.5"/>
<text xml:space="preserve" text-anchor="start" x="158.75" y="-404.75" font-family="Linux libertine" font-size="10.00">(1, 64, 64) </text>
</g>
<!-- 5&#45;&gt;6 -->
<g id="edge8" class="edge">
<title>5&#45;&gt;6</title>
<path fill="none" stroke="black" d="M142.66,-479.03C142.27,-471.4 141.83,-462.65 141.41,-454.31"/>
<polygon fill="black" stroke="black" points="144.92,-454.27 140.92,-444.46 137.92,-454.62 144.92,-454.27"/>
</g>
<!-- 6&#45;&gt;7 -->
<g id="edge9" class="edge">
<title>6&#45;&gt;7</title>
<path fill="none" stroke="black" d="M124.72,-397.53C119.02,-389.29 112.42,-379.74 106.24,-370.81"/>
<polygon fill="black" stroke="black" points="109.19,-368.92 100.62,-362.69 103.43,-372.91 109.19,-368.92"/>
</g>
<!-- 8 -->
<g id="node9" class="node">
<title>8</title>
<polygon fill="#c1ffc1" stroke="none" points="157.5,-280 12,-280 12,-234.5 157.5,-234.5 157.5,-280"/>
<polygon fill="none" stroke="black" points="12,-234.5 12,-280 55,-280 55,-234.5 12,-234.5"/>
<text xml:space="preserve" text-anchor="start" x="17.38" y="-259.5" font-family="Linux libertine" font-size="10.00">Conv1d</text>
<text xml:space="preserve" text-anchor="start" x="17" y="-246.75" font-family="Linux libertine" font-size="10.00">depth:2</text>
<polygon fill="none" stroke="black" points="55,-257.25 55,-280 98.75,-280 98.75,-257.25 55,-257.25"/>
<text xml:space="preserve" text-anchor="start" x="64.5" y="-264.5" font-family="Linux libertine" font-size="10.00">input:</text>
<polygon fill="none" stroke="black" points="98.75,-257.25 98.75,-280 157.5,-280 157.5,-257.25 98.75,-257.25"/>
<text xml:space="preserve" text-anchor="start" x="103.75" y="-264.5" font-family="Linux libertine" font-size="10.00">(1, 64, 64) </text>
<polygon fill="none" stroke="black" points="55,-234.5 55,-257.25 98.75,-257.25 98.75,-234.5 55,-234.5"/>
<text xml:space="preserve" text-anchor="start" x="60" y="-241.75" font-family="Linux libertine" font-size="10.00">output: </text>
<polygon fill="none" stroke="black" points="98.75,-234.5 98.75,-257.25 157.5,-257.25 157.5,-234.5 98.75,-234.5"/>
<text xml:space="preserve" text-anchor="start" x="103.75" y="-241.75" font-family="Linux libertine" font-size="10.00">(1, 64, 64) </text>
</g>
<!-- 7&#45;&gt;8 -->
<g id="edge10" class="edge">
<title>7&#45;&gt;8</title>
<path fill="none" stroke="black" d="M84.75,-316.03C84.75,-308.4 84.75,-299.65 84.75,-291.31"/>
<polygon fill="black" stroke="black" points="88.25,-291.46 84.75,-281.46 81.25,-291.46 88.25,-291.46"/>
</g>
<!-- 9 -->
<g id="node10" class="node">
<title>9</title>
<polygon fill="#c1ffc1" stroke="none" points="157.5,-198.5 12,-198.5 12,-153 157.5,-153 157.5,-198.5"/>
<polygon fill="none" stroke="black" points="12,-153 12,-198.5 55,-198.5 55,-153 12,-153"/>
<text xml:space="preserve" text-anchor="start" x="21.88" y="-178" font-family="Linux libertine" font-size="10.00">ReLU</text>
<text xml:space="preserve" text-anchor="start" x="17" y="-165.25" font-family="Linux libertine" font-size="10.00">depth:2</text>
<polygon fill="none" stroke="black" points="55,-175.75 55,-198.5 98.75,-198.5 98.75,-175.75 55,-175.75"/>
<text xml:space="preserve" text-anchor="start" x="64.5" y="-183" font-family="Linux libertine" font-size="10.00">input:</text>
<polygon fill="none" stroke="black" points="98.75,-175.75 98.75,-198.5 157.5,-198.5 157.5,-175.75 98.75,-175.75"/>
<text xml:space="preserve" text-anchor="start" x="103.75" y="-183" font-family="Linux libertine" font-size="10.00">(1, 64, 64) </text>
<polygon fill="none" stroke="black" points="55,-153 55,-175.75 98.75,-175.75 98.75,-153 55,-153"/>
<text xml:space="preserve" text-anchor="start" x="60" y="-160.25" font-family="Linux libertine" font-size="10.00">output: </text>
<polygon fill="none" stroke="black" points="98.75,-153 98.75,-175.75 157.5,-175.75 157.5,-153 98.75,-153"/>
<text xml:space="preserve" text-anchor="start" x="103.75" y="-160.25" font-family="Linux libertine" font-size="10.00">(1, 64, 64) </text>
</g>
<!-- 8&#45;&gt;9 -->
<g id="edge11" class="edge">
<title>8&#45;&gt;9</title>
<path fill="none" stroke="black" d="M84.75,-234.53C84.75,-226.9 84.75,-218.15 84.75,-209.81"/>
<polygon fill="black" stroke="black" points="88.25,-209.96 84.75,-199.96 81.25,-209.96 88.25,-209.96"/>
</g>
<!-- 10 -->
<g id="node11" class="node">
<title>10</title>
<polygon fill="#c1ffc1" stroke="none" points="157.5,-117 12,-117 12,-71.5 157.5,-71.5 157.5,-117"/>
<polygon fill="none" stroke="black" points="12,-71.5 12,-117 55,-117 55,-71.5 12,-71.5"/>
<text xml:space="preserve" text-anchor="start" x="17.38" y="-96.5" font-family="Linux libertine" font-size="10.00">Conv1d</text>
<text xml:space="preserve" text-anchor="start" x="17" y="-83.75" font-family="Linux libertine" font-size="10.00">depth:2</text>
<polygon fill="none" stroke="black" points="55,-94.25 55,-117 98.75,-117 98.75,-94.25 55,-94.25"/>
<text xml:space="preserve" text-anchor="start" x="64.5" y="-101.5" font-family="Linux libertine" font-size="10.00">input:</text>
<polygon fill="none" stroke="black" points="98.75,-94.25 98.75,-117 157.5,-117 157.5,-94.25 98.75,-94.25"/>
<text xml:space="preserve" text-anchor="start" x="103.75" y="-101.5" font-family="Linux libertine" font-size="10.00">(1, 64, 64) </text>
<polygon fill="none" stroke="black" points="55,-71.5 55,-94.25 98.75,-94.25 98.75,-71.5 55,-71.5"/>
<text xml:space="preserve" text-anchor="start" x="60" y="-78.75" font-family="Linux libertine" font-size="10.00">output: </text>
<polygon fill="none" stroke="black" points="98.75,-71.5 98.75,-94.25 157.5,-94.25 157.5,-71.5 98.75,-71.5"/>
<text xml:space="preserve" text-anchor="start" x="106.38" y="-78.75" font-family="Linux libertine" font-size="10.00">(1, 1, 64) </text>
</g>
<!-- 9&#45;&gt;10 -->
<g id="edge12" class="edge">
<title>9&#45;&gt;10</title>
<path fill="none" stroke="black" d="M84.75,-153.03C84.75,-145.4 84.75,-136.65 84.75,-128.31"/>
<polygon fill="black" stroke="black" points="88.25,-128.46 84.75,-118.46 81.25,-128.46 88.25,-128.46"/>
</g>
<!-- 11 -->
<g id="node12" class="node">
<title>11</title>
<polygon fill="lightyellow" stroke="none" points="143.88,-35.5 25.62,-35.5 25.62,0 143.88,0 143.88,-35.5"/>
<polygon fill="none" stroke="black" points="25.62,0 25.62,-35.5 93.38,-35.5 93.38,0 25.62,0"/>
<text xml:space="preserve" text-anchor="start" x="30.62" y="-20" font-family="Linux libertine" font-size="10.00">output&#45;tensor</text>
<text xml:space="preserve" text-anchor="start" x="43" y="-7.25" font-family="Linux libertine" font-size="10.00">depth:0</text>
<polygon fill="none" stroke="black" points="93.38,0 93.38,-35.5 143.88,-35.5 143.88,0 93.38,0"/>
<text xml:space="preserve" text-anchor="start" x="98.38" y="-13.62" font-family="Linux libertine" font-size="10.00">(1, 1, 64)</text>
</g>
<!-- 10&#45;&gt;11 -->
<g id="edge13" class="edge">
<title>10&#45;&gt;11</title>
<path fill="none" stroke="black" d="M84.75,-71.7C84.75,-63.85 84.75,-54.85 84.75,-46.54"/>
<polygon fill="black" stroke="black" points="88.25,-46.56 84.75,-36.56 81.25,-46.56 88.25,-46.56"/>
</g>
</g>
</svg>
