<?xml version="1.0" encoding="UTF-8" standalone="no"?>
<!DOCTYPE svg PUBLIC "-//W3C//DTD SVG 1.1//EN"
 "http://www.w3.org/Graphics/SVG/1.1/DTD/svg11.dtd">
<!-- Generated by graphviz version 15.1.0 (20260618.0150)
 -->
<!-- Title: vqvae_no_ste Pages: 1 -->
<svg width="258pt" height="1037pt"
 viewBox="0.00 0.00 258.00 1037.00" xmlns="http://www.w3.org/2000/svg" xmlns:xlink="http://www.w3.org/1999/xlink">
<g id="graph0" class="graph" transform="scale(0.753497 0.753497) rotate(0) translate(4 1372.25)">
<title>vqvae_no_ste</title>
<polygon fill="white" stroke="none" points="-4,4 -4,-1372.25 338.23,-1372.25 338.23,4 -4,4"/>
<g id="clust1" class="cluster">
<title>cluster_2</title>
<polygon fill="none" stroke="black" stroke-dasharray="5,2" points="147,-1078 147,-1324.75 309,-1324.75 309,-1078 147,-1078"/>
<text xml:space="preserve" text-anchor="middle" x="174.88" y="-1309.35" font-family="Times New Roman,serif" font-size="12.00">Encoder</text>
</g>
<g id="clust2" class="cluster">
<title>cluster_3</title>
<polygon fill="none" stroke="black" stroke-dasharray="5,2" points="8,-334.25 8,-1070 310,-1070 310,-334.25 8,-334.25"/>
<text xml:space="preserve" text-anchor="middle" x="57.62" y="-1054.6" font-family="Times New Roman,serif" font-size="12.00">QuantizerNoSTE</text>
</g>
<g id="clust3" class="cluster">
<title>cluster_4</title>
<polygon fill="none" stroke="black" stroke-dasharray="5,2" points="127,-8 127,-326.25 289,-326.25 289,-8 127,-8"/>
<text xml:space="preserve" text-anchor="middle" x="155.25" y="-310.85" font-family="Times New Roman,serif" font-size="12.00">Decoder</text>
</g>
<!-- 0 -->
<g id="node1" class="node">
<title>0</title>
<polygon fill="lightyellow" stroke="none" points="284.12,-1368.25 171.88,-1368.25 171.88,-1332.75 284.12,-1332.75 284.12,-1368.25"/>
<polygon fill="none" stroke="black" points="171.88,-1332.75 171.88,-1368.25 233.62,-1368.25 233.62,-1332.75 171.88,-1332.75"/>
<text xml:space="preserve" text-anchor="start" x="176.88" y="-1352.75" font-family="Linux libertine" font-size="10.00">input&#45;tensor</text>
<text xml:space="preserve" text-anchor="start" x="186.25" y="-1340" font-family="Linux libertine" font-size="10.00">depth:0</text>
<polygon fill="none" stroke="black" points="233.62,-1332.75 233.62,-1368.25 284.12,-1368.25 284.12,-1332.75 233.62,-1332.75"/>
<text xml:space="preserve" text-anchor="start" x="238.62" y="-1346.38" font-family="Linux libertine" font-size="10.00">(1, 1, 64)</text>
</g>
<!-- 1 -->
<g id="node2" class="node">
<title>1</title>
<polygon fill="#c1ffc1" stroke="none" points="300.75,-1294.5 155.25,-1294.5 155.25,-1249 300.75,-1249 300.75,-1294.5"/>
<polygon fill="none" stroke="black" points="155.25,-1249 155.25,-1294.5 198.25,-1294.5 198.25,-1249 155.25,-1249"/>
<text xml:space="preserve" text-anchor="start" x="160.62" y="-1274" font-family="Linux libertine" font-size="10.00">Conv1d</text>
<text xml:space="preserve" text-anchor="start" x="160.25" y="-1261.25" font-family="Linux libertine" font-size="10.00">depth:2</text>
<polygon fill="none" stroke="black" points="198.25,-1271.75 198.25,-1294.5 242,-1294.5 242,-1271.75 198.25,-1271.75"/>
<text xml:space="preserve" text-anchor="start" x="207.75" y="-1279" font-family="Linux libertine" font-size="10.00">input:</text>
<polygon fill="none" stroke="black" points="242,-1271.75 242,-1294.5 300.75,-1294.5 300.75,-1271.75 242,-1271.75"/>
<text xml:space="preserve" text-anchor="start" x="249.62" y="-1279" font-family="Linux libertine" font-size="10.00">(1, 1, 64) </text>
<polygon fill="none" stroke="black" points="198.25,-1249 198.25,-1271.75 242,-1271.75 242,-1249 198.25,-1249"/>
<text xml:space="preserve" text-anchor="start" x="203.25" y="-1256.25" font-family="Linux libertine" font-size="10.00">output: </text>
<polygon fill="none" stroke="black" points="242,-1249 242,-1271.75 300.75,-1271.75 300.75,-1249 242,-1249"/>
<text xml:space="preserve" text-anchor="start" x="247" y="-1256.25" font-family="Linux libertine" font-size="10.00">(1, 64, 64) </text>
</g>
<!-- 0&#45;&gt;1 -->
<g id="edge1" class="edge">
<title>0&#45;&gt;1</title>
<path fill="none" stroke="black" d="M228,-1332.85C228,-1324.91 228,-1315.13 228,-1305.78"/>
<polygon fill="black" stroke="black" points="231.5,-1305.85 228,-1295.85 224.5,-1305.85 231.5,-1305.85"/>
</g>
<!-- 2 -->
<g id="node3" class="node">
<title>2</title>
<polygon fill="#c1ffc1" stroke="none" points="300.75,-1213 155.25,-1213 155.25,-1167.5 300.75,-1167.5 300.75,-1213"/>
<polygon fill="none" stroke="black" points="155.25,-1167.5 155.25,-1213 198.25,-1213 198.25,-1167.5 155.25,-1167.5"/>
<text xml:space="preserve" text-anchor="start" x="165.12" y="-1192.5" font-family="Linux libertine" font-size="10.00">ReLU</text>
<text xml:space="preserve" text-anchor="start" x="160.25" y="-1179.75" font-family="Linux libertine" font-size="10.00">depth:2</text>
<polygon fill="none" stroke="black" points="198.25,-1190.25 198.25,-1213 242,-1213 242,-1190.25 198.25,-1190.25"/>
<text xml:space="preserve" text-anchor="start" x="207.75" y="-1197.5" font-family="Linux libertine" font-size="10.00">input:</text>
<polygon fill="none" stroke="black" points="242,-1190.25 242,-1213 300.75,-1213 300.75,-1190.25 242,-1190.25"/>
<text xml:space="preserve" text-anchor="start" x="247" y="-1197.5" font-family="Linux libertine" font-size="10.00">(1, 64, 64) </text>
<polygon fill="none" stroke="black" points="198.25,-1167.5 198.25,-1190.25 242,-1190.25 242,-1167.5 198.25,-1167.5"/>
<text xml:space="preserve" text-anchor="start" x="203.25" y="-1174.75" font-family="Linux libertine" font-size="10.00">output: </text>
<polygon fill="none" stroke="black" points="242,-1167.5 242,-1190.25 300.75,-1190.25 300.75,-1167.5 242,-1167.5"/>
<text xml:space="preserve" text-anchor="start" x="247" y="-1174.75" font-family="Linux libertine" font-size="10.00">(1, 64, 64) </text>
</g>
<!-- 1&#45;&gt;2 -->
<g id="edge2" class="edge">
<title>1&#45;&gt;2</title>
<path fill="none" stroke="black" d="M228,-1249.03C228,-1241.4 228,-1232.65 228,-1224.31"/>
<polygon fill="black" stroke="black" points="231.5,-1224.46 228,-1214.46 224.5,-1224.46 231.5,-1224.46"/>
</g>
<!-- 3 -->
<g id="node4" class="node">
<title>3</title>
<polygon fill="#c1ffc1" stroke="none" points="300.75,-1131.5 155.25,-1131.5 155.25,-1086 300.75,-1086 300.75,-1131.5"/>
<polygon fill="none" stroke="black" points="155.25,-1086 155.25,-1131.5 198.25,-1131.5 198.25,-1086 155.25,-1086"/>
<text xml:space="preserve" text-anchor="start" x="160.62" y="-1111" font-family="Linux libertine" font-size="10.00">Conv1d</text>
<text xml:space="preserve" text-anchor="start" x="160.25" y="-1098.25" font-family="Linux libertine" font-size="10.00">depth:2</text>
<polygon fill="none" stroke="black" points="198.25,-1108.75 198.25,-1131.5 242,-1131.5 242,-1108.75 198.25,-1108.75"/>
<text xml:space="preserve" text-anchor="start" x="207.75" y="-1116" font-family="Linux libertine" font-size="10.00">input:</text>
<polygon fill="none" stroke="black" points="242,-1108.75 242,-1131.5 300.75,-1131.5 300.75,-1108.75 242,-1108.75"/>
<text xml:space="preserve" text-anchor="start" x="247" y="-1116" font-family="Linux libertine" font-size="10.00">(1, 64, 64) </text>
<polygon fill="none" stroke="black" points="198.25,-1086 198.25,-1108.75 242,-1108.75 242,-1086 198.25,-1086"/>
<text xml:space="preserve" text-anchor="start" x="203.25" y="-1093.25" font-family="Linux libertine" font-size="10.00">output: </text>
<polygon fill="none" stroke="black" points="242,-1086 242,-1108.75 300.75,-1108.75 300.75,-1086 242,-1086"/>
<text xml:space="preserve" text-anchor="start" x="247" y="-1093.25" font-family="Linux libertine" font-size="10.00">(1, 64, 64) </text>
</g>
<!-- 2&#45;&gt;3 -->
<g id="edge3" class="edge">
<title>2&#45;&gt;3</title>
<path fill="none" stroke="black" d="M228,-1167.53C228,-1159.9 228,-1151.15 228,-1142.81"/>
<polygon fill="black" stroke="black" points="231.5,-1142.96 228,-1132.96 224.5,-1142.96 231.5,-1142.96"/>
</g>
<!-- 4 -->
<g id="node5" class="node">
<title>4</title>
<polygon fill="aliceblue" stroke="none" points="302.25,-1039.75 153.75,-1039.75 153.75,-994.25 302.25,-994.25 302.25,-1039.75"/>
<polygon fill="none" stroke="black" points="153.75,-994.25 153.75,-1039.75 199.75,-1039.75 199.75,-994.25 153.75,-994.25"/>
<text xml:space="preserve" text-anchor="start" x="158.75" y="-1019.25" font-family="Linux libertine" font-size="10.00">permute</text>
<text xml:space="preserve" text-anchor="start" x="160.25" y="-1006.5" font-family="Linux libertine" font-size="10.00">depth:2</text>
<polygon fill="none" stroke="black" points="199.75,-1017 199.75,-1039.75 243.5,-1039.75 243.5,-1017 199.75,-1017"/>
<text xml:space="preserve" text-anchor="start" x="209.25" y="-1024.25" font-family="Linux libertine" font-size="10.00">input:</text>
<polygon fill="none" stroke="black" points="243.5,-1017 243.5,-1039.75 302.25,-1039.75 302.25,-1017 243.5,-1017"/>
<text xml:space="preserve" text-anchor="start" x="248.5" y="-1024.25" font-family="Linux libertine" font-size="10.00">(1, 64, 64) </text>
<polygon fill="none" stroke="black" points="199.75,-994.25 199.75,-1017 243.5,-1017 243.5,-994.25 199.75,-994.25"/>
<text xml:space="preserve" text-anchor="start" x="204.75" y="-1001.5" font-family="Linux libertine" font-size="10.00">output: </text>
<polygon fill="none" stroke="black" points="243.5,-994.25 243.5,-1017 302.25,-1017 302.25,-994.25 243.5,-994.25"/>
<text xml:space="preserve" text-anchor="start" x="248.5" y="-1001.5" font-family="Linux libertine" font-size="10.00">(1, 64, 64) </text>
</g>
<!-- 3&#45;&gt;4 -->
<g id="edge4" class="edge">
<title>3&#45;&gt;4</title>
<path fill="none" stroke="black" d="M228,-1086.02C228,-1075.44 228,-1062.49 228,-1050.74"/>
<polygon fill="black" stroke="black" points="231.5,-1051.04 228,-1041.04 224.5,-1051.04 231.5,-1051.04"/>
</g>
<!-- 14 -->
<g id="node15" class="node">
<title>14</title>
<polygon fill="aliceblue" stroke="none" points="302.12,-387.75 113.88,-387.75 113.88,-342.25 302.12,-342.25 302.12,-387.75"/>
<polygon fill="none" stroke="black" points="113.88,-342.25 113.88,-387.75 159.12,-387.75 159.12,-342.25 113.88,-342.25"/>
<text xml:space="preserve" text-anchor="start" x="118.88" y="-367.25" font-family="Linux libertine" font-size="10.00">view_as</text>
<text xml:space="preserve" text-anchor="start" x="120" y="-354.5" font-family="Linux libertine" font-size="10.00">depth:2</text>
<polygon fill="none" stroke="black" points="159.12,-365 159.12,-387.75 202.88,-387.75 202.88,-365 159.12,-365"/>
<text xml:space="preserve" text-anchor="start" x="168.62" y="-372.25" font-family="Linux libertine" font-size="10.00">input:</text>
<polygon fill="none" stroke="black" points="202.88,-365 202.88,-387.75 302.12,-387.75 302.12,-365 202.88,-365"/>
<text xml:space="preserve" text-anchor="start" x="207.88" y="-372.25" font-family="Linux libertine" font-size="10.00">(64, 64), (1, 64, 64) </text>
<polygon fill="none" stroke="black" points="159.12,-342.25 159.12,-365 202.88,-365 202.88,-342.25 159.12,-342.25"/>
<text xml:space="preserve" text-anchor="start" x="164.12" y="-349.5" font-family="Linux libertine" font-size="10.00">output: </text>
<polygon fill="none" stroke="black" points="202.88,-342.25 202.88,-365 302.12,-365 302.12,-342.25 202.88,-342.25"/>
<text xml:space="preserve" text-anchor="start" x="228.12" y="-349.5" font-family="Linux libertine" font-size="10.00">(1, 64, 64) </text>
</g>
<!-- 3&#45;&gt;14 -->
<g id="edge5" class="edge">
<title>3&#45;&gt;14</title>
<path fill="none" stroke="black" d="M293.52,-1086.07C300.2,-1081.64 306.26,-1076.34 311,-1070 346.92,-1022.02 330,-996.43 330,-936.5 330,-936.5 330,-936.5 330,-527 330,-477.95 321.15,-462.44 291,-423.75 282.14,-412.39 270.44,-402.38 258.62,-394.02"/>
<polygon fill="black" stroke="black" points="260.68,-391.18 250.42,-388.51 256.77,-396.99 260.68,-391.18"/>
</g>
<!-- 5 -->
<g id="node6" class="node">
<title>5</title>
<polygon fill="aliceblue" stroke="none" points="301.5,-958.25 154.5,-958.25 154.5,-912.75 301.5,-912.75 301.5,-958.25"/>
<polygon fill="none" stroke="black" points="154.5,-912.75 154.5,-958.25 199,-958.25 199,-912.75 154.5,-912.75"/>
<text xml:space="preserve" text-anchor="start" x="159.5" y="-937.75" font-family="Linux libertine" font-size="10.00">reshape</text>
<text xml:space="preserve" text-anchor="start" x="160.25" y="-925" font-family="Linux libertine" font-size="10.00">depth:2</text>
<polygon fill="none" stroke="black" points="199,-935.5 199,-958.25 242.75,-958.25 242.75,-935.5 199,-935.5"/>
<text xml:space="preserve" text-anchor="start" x="208.5" y="-942.75" font-family="Linux libertine" font-size="10.00">input:</text>
<polygon fill="none" stroke="black" points="242.75,-935.5 242.75,-958.25 301.5,-958.25 301.5,-935.5 242.75,-935.5"/>
<text xml:space="preserve" text-anchor="start" x="247.75" y="-942.75" font-family="Linux libertine" font-size="10.00">(1, 64, 64) </text>
<polygon fill="none" stroke="black" points="199,-912.75 199,-935.5 242.75,-935.5 242.75,-912.75 199,-912.75"/>
<text xml:space="preserve" text-anchor="start" x="204" y="-920" font-family="Linux libertine" font-size="10.00">output: </text>
<polygon fill="none" stroke="black" points="242.75,-912.75 242.75,-935.5 301.5,-935.5 301.5,-912.75 242.75,-912.75"/>
<text xml:space="preserve" text-anchor="start" x="253.38" y="-920" font-family="Linux libertine" font-size="10.00">(64, 64) </text>
</g>
<!-- 4&#45;&gt;5 -->
<g id="edge6" class="edge">
<title>4&#45;&gt;5</title>
<path fill="none" stroke="black" d="M228,-994.28C228,-986.65 228,-977.9 228,-969.56"/>
<polygon fill="black" stroke="black" points="231.5,-969.71 228,-959.71 224.5,-969.71 231.5,-969.71"/>
</g>
<!-- 6 -->
<g id="node7" class="node">
<title>6</title>
<polygon fill="aliceblue" stroke="none" points="150.12,-876.75 15.88,-876.75 15.88,-831.25 150.12,-831.25 150.12,-876.75"/>
<polygon fill="none" stroke="black" points="15.88,-831.25 15.88,-876.75 58.88,-876.75 58.88,-831.25 15.88,-831.25"/>
<text xml:space="preserve" text-anchor="start" x="28.38" y="-856.25" font-family="Linux libertine" font-size="10.00">pow</text>
<text xml:space="preserve" text-anchor="start" x="20.88" y="-843.5" font-family="Linux libertine" font-size="10.00">depth:2</text>
<polygon fill="none" stroke="black" points="58.88,-854 58.88,-876.75 102.62,-876.75 102.62,-854 58.88,-854"/>
<text xml:space="preserve" text-anchor="start" x="68.38" y="-861.25" font-family="Linux libertine" font-size="10.00">input:</text>
<polygon fill="none" stroke="black" points="102.62,-854 102.62,-876.75 150.12,-876.75 150.12,-854 102.62,-854"/>
<text xml:space="preserve" text-anchor="start" x="107.62" y="-861.25" font-family="Linux libertine" font-size="10.00">(64, 64) </text>
<polygon fill="none" stroke="black" points="58.88,-831.25 58.88,-854 102.62,-854 102.62,-831.25 58.88,-831.25"/>
<text xml:space="preserve" text-anchor="start" x="63.88" y="-838.5" font-family="Linux libertine" font-size="10.00">output: </text>
<polygon fill="none" stroke="black" points="102.62,-831.25 102.62,-854 150.12,-854 150.12,-831.25 102.62,-831.25"/>
<text xml:space="preserve" text-anchor="start" x="107.62" y="-838.5" font-family="Linux libertine" font-size="10.00">(64, 64) </text>
</g>
<!-- 5&#45;&gt;6 -->
<g id="edge7" class="edge">
<title>5&#45;&gt;6</title>
<path fill="none" stroke="black" d="M188.38,-912.78C171.12,-903.31 150.7,-892.12 132.45,-882.11"/>
<polygon fill="black" stroke="black" points="134.35,-879.16 123.9,-877.43 130.99,-885.3 134.35,-879.16"/>
</g>
<!-- 8 -->
<g id="node9" class="node">
<title>8</title>
<polygon fill="aliceblue" stroke="none" points="302.12,-876.75 167.88,-876.75 167.88,-831.25 302.12,-831.25 302.12,-876.75"/>
<polygon fill="none" stroke="black" points="167.88,-831.25 167.88,-876.75 210.88,-876.75 210.88,-831.25 167.88,-831.25"/>
<text xml:space="preserve" text-anchor="start" x="181.5" y="-856.25" font-family="Linux libertine" font-size="10.00">mul</text>
<text xml:space="preserve" text-anchor="start" x="172.88" y="-843.5" font-family="Linux libertine" font-size="10.00">depth:2</text>
<polygon fill="none" stroke="black" points="210.88,-854 210.88,-876.75 254.62,-876.75 254.62,-854 210.88,-854"/>
<text xml:space="preserve" text-anchor="start" x="220.38" y="-861.25" font-family="Linux libertine" font-size="10.00">input:</text>
<polygon fill="none" stroke="black" points="254.62,-854 254.62,-876.75 302.12,-876.75 302.12,-854 254.62,-854"/>
<text xml:space="preserve" text-anchor="start" x="259.62" y="-861.25" font-family="Linux libertine" font-size="10.00">(64, 64) </text>
<polygon fill="none" stroke="black" points="210.88,-831.25 210.88,-854 254.62,-854 254.62,-831.25 210.88,-831.25"/>
<text xml:space="preserve" text-anchor="start" x="215.88" y="-838.5" font-family="Linux libertine" font-size="10.00">output: </text>
<polygon fill="none" stroke="black" points="254.62,-831.25 254.62,-854 302.12,-854 302.12,-831.25 254.62,-831.25"/>
<text xml:space="preserve" text-anchor="start" x="259.62" y="-838.5" font-family="Linux libertine" font-size="10.00">(64, 64) </text>
</g>
<!-- 5&#45;&gt;8 -->
<g id="edge8" class="edge">
<title>5&#45;&gt;8</title>
<path fill="none" stroke="black" d="M229.91,-912.78C230.58,-905.15 231.35,-896.4 232.09,-888.06"/>
<polygon fill="black" stroke="black" points="235.57,-888.47 232.96,-878.21 228.59,-887.86 235.57,-888.47"/>
</g>
<!-- 7 -->
<g id="node8" class="node">
<title>7</title>
<polygon fill="aliceblue" stroke="none" points="150.12,-795.25 15.88,-795.25 15.88,-749.75 150.12,-749.75 150.12,-795.25"/>
<polygon fill="none" stroke="black" points="15.88,-749.75 15.88,-795.25 58.88,-795.25 58.88,-749.75 15.88,-749.75"/>
<text xml:space="preserve" text-anchor="start" x="28.38" y="-774.75" font-family="Linux libertine" font-size="10.00">sum</text>
<text xml:space="preserve" text-anchor="start" x="20.88" y="-762" font-family="Linux libertine" font-size="10.00">depth:2</text>
<polygon fill="none" stroke="black" points="58.88,-772.5 58.88,-795.25 102.62,-795.25 102.62,-772.5 58.88,-772.5"/>
<text xml:space="preserve" text-anchor="start" x="68.38" y="-779.75" font-family="Linux libertine" font-size="10.00">input:</text>
<polygon fill="none" stroke="black" points="102.62,-772.5 102.62,-795.25 150.12,-795.25 150.12,-772.5 102.62,-772.5"/>
<text xml:space="preserve" text-anchor="start" x="107.62" y="-779.75" font-family="Linux libertine" font-size="10.00">(64, 64) </text>
<polygon fill="none" stroke="black" points="58.88,-749.75 58.88,-772.5 102.62,-772.5 102.62,-749.75 58.88,-749.75"/>
<text xml:space="preserve" text-anchor="start" x="63.88" y="-757" font-family="Linux libertine" font-size="10.00">output: </text>
<polygon fill="none" stroke="black" points="102.62,-749.75 102.62,-772.5 150.12,-772.5 150.12,-749.75 102.62,-749.75"/>
<text xml:space="preserve" text-anchor="start" x="110.25" y="-757" font-family="Linux libertine" font-size="10.00">(64, 1) </text>
</g>
<!-- 6&#45;&gt;7 -->
<g id="edge9" class="edge">
<title>6&#45;&gt;7</title>
<path fill="none" stroke="black" d="M83,-831.28C83,-823.65 83,-814.9 83,-806.56"/>
<polygon fill="black" stroke="black" points="86.5,-806.71 83,-796.71 79.5,-806.71 86.5,-806.71"/>
</g>
<!-- 10 -->
<g id="node11" class="node">
<title>10</title>
<polygon fill="aliceblue" stroke="none" points="292.75,-713.75 123.25,-713.75 123.25,-668.25 292.75,-668.25 292.75,-713.75"/>
<polygon fill="none" stroke="black" points="123.25,-668.25 123.25,-713.75 166.25,-713.75 166.25,-668.25 123.25,-668.25"/>
<text xml:space="preserve" text-anchor="start" x="137.25" y="-693.25" font-family="Linux libertine" font-size="10.00">sub</text>
<text xml:space="preserve" text-anchor="start" x="128.25" y="-680.5" font-family="Linux libertine" font-size="10.00">depth:2</text>
<polygon fill="none" stroke="black" points="166.25,-691 166.25,-713.75 210,-713.75 210,-691 166.25,-691"/>
<text xml:space="preserve" text-anchor="start" x="175.75" y="-698.25" font-family="Linux libertine" font-size="10.00">input:</text>
<polygon fill="none" stroke="black" points="210,-691 210,-713.75 292.75,-713.75 292.75,-691 210,-691"/>
<text xml:space="preserve" text-anchor="start" x="215" y="-698.25" font-family="Linux libertine" font-size="10.00">(64, 1), (64, 16) </text>
<polygon fill="none" stroke="black" points="166.25,-668.25 166.25,-691 210,-691 210,-668.25 166.25,-668.25"/>
<text xml:space="preserve" text-anchor="start" x="171.25" y="-675.5" font-family="Linux libertine" font-size="10.00">output: </text>
<polygon fill="none" stroke="black" points="210,-668.25 210,-691 292.75,-691 292.75,-668.25 210,-668.25"/>
<text xml:space="preserve" text-anchor="start" x="232.62" y="-675.5" font-family="Linux libertine" font-size="10.00">(64, 16) </text>
</g>
<!-- 7&#45;&gt;10 -->
<g id="edge10" class="edge">
<title>7&#45;&gt;10</title>
<path fill="none" stroke="black" d="M117.16,-749.78C131.76,-740.49 148.99,-729.53 164.49,-719.67"/>
<polygon fill="black" stroke="black" points="166.05,-722.83 172.61,-714.51 162.29,-716.92 166.05,-722.83"/>
</g>
<!-- 9 -->
<g id="node10" class="node">
<title>9</title>
<polygon fill="aliceblue" stroke="none" points="302.12,-795.25 167.88,-795.25 167.88,-749.75 302.12,-749.75 302.12,-795.25"/>
<polygon fill="none" stroke="black" points="167.88,-749.75 167.88,-795.25 210.88,-795.25 210.88,-749.75 167.88,-749.75"/>
<text xml:space="preserve" text-anchor="start" x="173.25" y="-774.75" font-family="Linux libertine" font-size="10.00">matmul</text>
<text xml:space="preserve" text-anchor="start" x="172.88" y="-762" font-family="Linux libertine" font-size="10.00">depth:2</text>
<polygon fill="none" stroke="black" points="210.88,-772.5 210.88,-795.25 254.62,-795.25 254.62,-772.5 210.88,-772.5"/>
<text xml:space="preserve" text-anchor="start" x="220.38" y="-779.75" font-family="Linux libertine" font-size="10.00">input:</text>
<polygon fill="none" stroke="black" points="254.62,-772.5 254.62,-795.25 302.12,-795.25 302.12,-772.5 254.62,-772.5"/>
<text xml:space="preserve" text-anchor="start" x="259.62" y="-779.75" font-family="Linux libertine" font-size="10.00">(64, 64) </text>
<polygon fill="none" stroke="black" points="210.88,-749.75 210.88,-772.5 254.62,-772.5 254.62,-749.75 210.88,-749.75"/>
<text xml:space="preserve" text-anchor="start" x="215.88" y="-757" font-family="Linux libertine" font-size="10.00">output: </text>
<polygon fill="none" stroke="black" points="254.62,-749.75 254.62,-772.5 302.12,-772.5 302.12,-749.75 254.62,-749.75"/>
<text xml:space="preserve" text-anchor="start" x="259.62" y="-757" font-family="Linux libertine" font-size="10.00">(64, 16) </text>
</g>
<!-- 8&#45;&gt;9 -->
<g id="edge11" class="edge">
<title>8&#45;&gt;9</title>
<path fill="none" stroke="black" d="M235,-831.28C235,-823.65 235,-814.9 235,-806.56"/>
<polygon fill="black" stroke="black" points="238.5,-806.71 235,-796.71 231.5,-806.71 238.5,-806.71"/>
</g>
<!-- 9&#45;&gt;10 -->
<g id="edge12" class="edge">
<title>9&#45;&gt;10</title>
<path fill="none" stroke="black" d="M227.62,-749.78C224.97,-741.98 221.93,-733 219.03,-724.49"/>
<polygon fill="black" stroke="black" points="222.39,-723.47 215.86,-715.13 215.76,-725.72 222.39,-723.47"/>
</g>
<!-- 11 -->
<g id="node12" class="node">
<title>11</title>
<polygon fill="aliceblue" stroke="none" points="275.12,-632.25 140.88,-632.25 140.88,-586.75 275.12,-586.75 275.12,-632.25"/>
<polygon fill="none" stroke="black" points="140.88,-586.75 140.88,-632.25 183.88,-632.25 183.88,-586.75 140.88,-586.75"/>
<text xml:space="preserve" text-anchor="start" x="154.5" y="-611.75" font-family="Linux libertine" font-size="10.00">add</text>
<text xml:space="preserve" text-anchor="start" x="145.88" y="-599" font-family="Linux libertine" font-size="10.00">depth:2</text>
<polygon fill="none" stroke="black" points="183.88,-609.5 183.88,-632.25 227.62,-632.25 227.62,-609.5 183.88,-609.5"/>
<text xml:space="preserve" text-anchor="start" x="193.38" y="-616.75" font-family="Linux libertine" font-size="10.00">input:</text>
<polygon fill="none" stroke="black" points="227.62,-609.5 227.62,-632.25 275.12,-632.25 275.12,-609.5 227.62,-609.5"/>
<text xml:space="preserve" text-anchor="start" x="232.62" y="-616.75" font-family="Linux libertine" font-size="10.00">(64, 16) </text>
<polygon fill="none" stroke="black" points="183.88,-586.75 183.88,-609.5 227.62,-609.5 227.62,-586.75 183.88,-586.75"/>
<text xml:space="preserve" text-anchor="start" x="188.88" y="-594" font-family="Linux libertine" font-size="10.00">output: </text>
<polygon fill="none" stroke="black" points="227.62,-586.75 227.62,-609.5 275.12,-609.5 275.12,-586.75 227.62,-586.75"/>
<text xml:space="preserve" text-anchor="start" x="232.62" y="-594" font-family="Linux libertine" font-size="10.00">(64, 16) </text>
</g>
<!-- 10&#45;&gt;11 -->
<g id="edge13" class="edge">
<title>10&#45;&gt;11</title>
<path fill="none" stroke="black" d="M208,-668.28C208,-660.65 208,-651.9 208,-643.56"/>
<polygon fill="black" stroke="black" points="211.5,-643.71 208,-633.71 204.5,-643.71 211.5,-643.71"/>
</g>
<!-- 12 -->
<g id="node13" class="node">
<title>12</title>
<polygon fill="aliceblue" stroke="none" points="275.12,-550.75 140.88,-550.75 140.88,-505.25 275.12,-505.25 275.12,-550.75"/>
<polygon fill="none" stroke="black" points="140.88,-505.25 140.88,-550.75 183.88,-550.75 183.88,-505.25 140.88,-505.25"/>
<text xml:space="preserve" text-anchor="start" x="147.38" y="-530.25" font-family="Linux libertine" font-size="10.00">argmin</text>
<text xml:space="preserve" text-anchor="start" x="145.88" y="-517.5" font-family="Linux libertine" font-size="10.00">depth:2</text>
<polygon fill="none" stroke="black" points="183.88,-528 183.88,-550.75 227.62,-550.75 227.62,-528 183.88,-528"/>
<text xml:space="preserve" text-anchor="start" x="193.38" y="-535.25" font-family="Linux libertine" font-size="10.00">input:</text>
<polygon fill="none" stroke="black" points="227.62,-528 227.62,-550.75 275.12,-550.75 275.12,-528 227.62,-528"/>
<text xml:space="preserve" text-anchor="start" x="232.62" y="-535.25" font-family="Linux libertine" font-size="10.00">(64, 16) </text>
<polygon fill="none" stroke="black" points="183.88,-505.25 183.88,-528 227.62,-528 227.62,-505.25 183.88,-505.25"/>
<text xml:space="preserve" text-anchor="start" x="188.88" y="-512.5" font-family="Linux libertine" font-size="10.00">output: </text>
<polygon fill="none" stroke="black" points="227.62,-505.25 227.62,-528 275.12,-528 275.12,-505.25 227.62,-505.25"/>
<text xml:space="preserve" text-anchor="start" x="239.38" y="-512.5" font-family="Linux libertine" font-size="10.00">(64,) </text>
</g>
<!-- 11&#45;&gt;12 -->
<g id="edge14" class="edge">
<title>11&#45;&gt;12</title>
<path fill="none" stroke="black" d="M208,-586.78C208,-579.15 208,-570.4 208,-562.06"/>
<polygon fill="black" stroke="black" points="211.5,-562.21 208,-552.21 204.5,-562.21 211.5,-562.21"/>
</g>
<!-- 13 -->
<g id="node14" class="node">
<title>13</title>
<polygon fill="#c1ffc1" stroke="none" points="282.25,-469.25 133.75,-469.25 133.75,-423.75 282.25,-423.75 282.25,-469.25"/>
<polygon fill="none" stroke="black" points="133.75,-423.75 133.75,-469.25 191,-469.25 191,-423.75 133.75,-423.75"/>
<text xml:space="preserve" text-anchor="start" x="138.75" y="-448.75" font-family="Linux libertine" font-size="10.00">Embedding</text>
<text xml:space="preserve" text-anchor="start" x="145.88" y="-436" font-family="Linux libertine" font-size="10.00">depth:2</text>
<polygon fill="none" stroke="black" points="191,-446.5 191,-469.25 234.75,-469.25 234.75,-446.5 191,-446.5"/>
<text xml:space="preserve" text-anchor="start" x="200.5" y="-453.75" font-family="Linux libertine" font-size="10.00">input:</text>
<polygon fill="none" stroke="black" points="234.75,-446.5 234.75,-469.25 282.25,-469.25 282.25,-446.5 234.75,-446.5"/>
<text xml:space="preserve" text-anchor="start" x="246.5" y="-453.75" font-family="Linux libertine" font-size="10.00">(64,) </text>
<polygon fill="none" stroke="black" points="191,-423.75 191,-446.5 234.75,-446.5 234.75,-423.75 191,-423.75"/>
<text xml:space="preserve" text-anchor="start" x="196" y="-431" font-family="Linux libertine" font-size="10.00">output: </text>
<polygon fill="none" stroke="black" points="234.75,-423.75 234.75,-446.5 282.25,-446.5 282.25,-423.75 234.75,-423.75"/>
<text xml:space="preserve" text-anchor="start" x="239.75" y="-431" font-family="Linux libertine" font-size="10.00">(64, 64) </text>
</g>
<!-- 12&#45;&gt;13 -->
<g id="edge15" class="edge">
<title>12&#45;&gt;13</title>
<path fill="none" stroke="black" d="M208,-505.28C208,-497.65 208,-488.9 208,-480.56"/>
<polygon fill="black" stroke="black" points="211.5,-480.71 208,-470.71 204.5,-480.71 211.5,-480.71"/>
</g>
<!-- 13&#45;&gt;14 -->
<g id="edge16" class="edge">
<title>13&#45;&gt;14</title>
<path fill="none" stroke="black" d="M208,-423.78C208,-416.15 208,-407.4 208,-399.06"/>
<polygon fill="black" stroke="black" points="211.5,-399.21 208,-389.21 204.5,-399.21 211.5,-399.21"/>
</g>
<!-- 15 -->
<g id="node16" class="node">
<title>15</title>
<polygon fill="#c1ffc1" stroke="none" points="280.75,-296 135.25,-296 135.25,-250.5 280.75,-250.5 280.75,-296"/>
<polygon fill="none" stroke="black" points="135.25,-250.5 135.25,-296 178.25,-296 178.25,-250.5 135.25,-250.5"/>
<text xml:space="preserve" text-anchor="start" x="140.62" y="-275.5" font-family="Linux libertine" font-size="10.00">Conv1d</text>
<text xml:space="preserve" text-anchor="start" x="140.25" y="-262.75" font-family="Linux libertine" font-size="10.00">depth:2</text>
<polygon fill="none" stroke="black" points="178.25,-273.25 178.25,-296 222,-296 222,-273.25 178.25,-273.25"/>
<text xml:space="preserve" text-anchor="start" x="187.75" y="-280.5" font-family="Linux libertine" font-size="10.00">input:</text>
<polygon fill="none" stroke="black" points="222,-273.25 222,-296 280.75,-296 280.75,-273.25 222,-273.25"/>
<text xml:space="preserve" text-anchor="start" x="227" y="-280.5" font-family="Linux libertine" font-size="10.00">(1, 64, 64) </text>
<polygon fill="none" stroke="black" points="178.25,-250.5 178.25,-273.25 222,-273.25 222,-250.5 178.25,-250.5"/>
<text xml:space="preserve" text-anchor="start" x="183.25" y="-257.75" font-family="Linux libertine" font-size="10.00">output: </text>
<polygon fill="none" stroke="black" points="222,-250.5 222,-273.25 280.75,-273.25 280.75,-250.5 222,-250.5"/>
<text xml:space="preserve" text-anchor="start" x="227" y="-257.75" font-family="Linux libertine" font-size="10.00">(1, 64, 64) </text>
</g>
<!-- 14&#45;&gt;15 -->
<g id="edge17" class="edge">
<title>14&#45;&gt;15</title>
<path fill="none" stroke="black" d="M208,-342.27C208,-331.69 208,-318.74 208,-306.99"/>
<polygon fill="black" stroke="black" points="211.5,-307.29 208,-297.29 204.5,-307.29 211.5,-307.29"/>
</g>
<!-- 16 -->
<g id="node17" class="node">
<title>16</title>
<polygon fill="#c1ffc1" stroke="none" points="280.75,-214.5 135.25,-214.5 135.25,-169 280.75,-169 280.75,-214.5"/>
<polygon fill="none" stroke="black" points="135.25,-169 135.25,-214.5 178.25,-214.5 178.25,-169 135.25,-169"/>
<text xml:space="preserve" text-anchor="start" x="145.12" y="-194" font-family="Linux libertine" font-size="10.00">ReLU</text>
<text xml:space="preserve" text-anchor="start" x="140.25" y="-181.25" font-family="Linux libertine" font-size="10.00">depth:2</text>
<polygon fill="none" stroke="black" points="178.25,-191.75 178.25,-214.5 222,-214.5 222,-191.75 178.25,-191.75"/>
<text xml:space="preserve" text-anchor="start" x="187.75" y="-199" font-family="Linux libertine" font-size="10.00">input:</text>
<polygon fill="none" stroke="black" points="222,-191.75 222,-214.5 280.75,-214.5 280.75,-191.75 222,-191.75"/>
<text xml:space="preserve" text-anchor="start" x="227" y="-199" font-family="Linux libertine" font-size="10.00">(1, 64, 64) </text>
<polygon fill="none" stroke="black" points="178.25,-169 178.25,-191.75 222,-191.75 222,-169 178.25,-169"/>
<text xml:space="preserve" text-anchor="start" x="183.25" y="-176.25" font-family="Linux libertine" font-size="10.00">output: </text>
<polygon fill="none" stroke="black" points="222,-169 222,-191.75 280.75,-191.75 280.75,-169 222,-169"/>
<text xml:space="preserve" text-anchor="start" x="227" y="-176.25" font-family="Linux libertine" font-size="10.00">(1, 64, 64) </text>
</g>
<!-- 15&#45;&gt;16 -->
<g id="edge18" class="edge">
<title>15&#45;&gt;16</title>
<path fill="none" stroke="black" d="M208,-250.53C208,-242.9 208,-234.15 208,-225.81"/>
<polygon fill="black" stroke="black" points="211.5,-225.96 208,-215.96 204.5,-225.96 211.5,-225.96"/>
</g>
<!-- 17 -->
<g id="node18" class="node">
<title>17</title>
<polygon fill="#c1ffc1" stroke="none" points="280.75,-133 135.25,-133 135.25,-87.5 280.75,-87.5 280.75,-133"/>
<polygon fill="none" stroke="black" points="135.25,-87.5 135.25,-133 178.25,-133 178.25,-87.5 135.25,-87.5"/>
<text xml:space="preserve" text-anchor="start" x="140.62" y="-112.5" font-family="Linux libertine" font-size="10.00">Conv1d</text>
<text xml:space="preserve" text-anchor="start" x="140.25" y="-99.75" font-family="Linux libertine" font-size="10.00">depth:2</text>
<polygon fill="none" stroke="black" points="178.25,-110.25 178.25,-133 222,-133 222,-110.25 178.25,-110.25"/>
<text xml:space="preserve" text-anchor="start" x="187.75" y="-117.5" font-family="Linux libertine" font-size="10.00">input:</text>
<polygon fill="none" stroke="black" points="222,-110.25 222,-133 280.75,-133 280.75,-110.25 222,-110.25"/>
<text xml:space="preserve" text-anchor="start" x="227" y="-117.5" font-family="Linux libertine" font-size="10.00">(1, 64, 64) </text>
<polygon fill="none" stroke="black" points="178.25,-87.5 178.25,-110.25 222,-110.25 222,-87.5 178.25,-87.5"/>
<text xml:space="preserve" text-anchor="start" x="183.25" y="-94.75" font-family="Linux libertine" font-size="10.00">output: </text>
<polygon fill="none" stroke="black" points="222,-87.5 222,-110.25 280.75,-110.25 280.75,-87.5 222,-87.5"/>
<text xml:space="preserve" text-anchor="start" x="229.62" y="-94.75" font-family="Linux libertine" font-size="10.00">(1, 1, 64) </text>
</g>
<!-- 16&#45;&gt;17 -->
<g id="edge19" class="edge">
<title>16&#45;&gt;17</title>
<path fill="none" stroke="black" d="M208,-169.03C208,-161.4 208,-152.65 208,-144.31"/>
<polygon fill="black" stroke="black" points="211.5,-144.46 208,-134.46 204.5,-144.46 211.5,-144.46"/>
</g>
<!-- 18 -->
<g id="node19" class="node">
<title>18</title>
<polygon fill="lightyellow" stroke="none" points="267.12,-51.5 148.88,-51.5 148.88,-16 267.12,-16 267.12,-51.5"/>
<polygon fill="none" stroke="black" points="148.88,-16 148.88,-51.5 216.62,-51.5 216.62,-16 148.88,-16"/>
<text xml:space="preserve" text-anchor="start" x="153.88" y="-36" font-family="Linux libertine" font-size="10.00">output&#45;tensor</text>
<text xml:space="preserve" text-anchor="start" x="166.25" y="-23.25" font-family="Linux libertine" font-size="10.00">depth:0</text>
<polygon fill="none" stroke="black" points="216.62,-16 216.62,-51.5 267.12,-51.5 267.12,-16 216.62,-16"/>
<text xml:space="preserve" text-anchor="start" x="221.62" y="-29.62" font-family="Linux libertine" font-size="10.00">(1, 1, 64)</text>
</g>
<!-- 17&#45;&gt;18 -->
<g id="edge20" class="edge">
<title>17&#45;&gt;18</title>
<path fill="none" stroke="black" d="M208,-87.7C208,-79.85 208,-70.85 208,-62.54"/>
<polygon fill="black" stroke="black" points="211.5,-62.56 208,-52.56 204.5,-62.56 211.5,-62.56"/>
</g>
</g>
</svg>
