<?xml version="1.0" encoding="UTF-8" standalone="no"?>
<!DOCTYPE svg PUBLIC "-//W3C//DTD SVG 1.1//EN"
 "http://www.w3.org/Graphics/SVG/1.1/DTD/svg11.dtd">
<!-- Generated by graphviz version 15.1.0 (20260618.0150)
 -->
<!-- Title: vqvae_no_ste Pages: 1 -->
<svg width="158pt" height="686pt"
 viewBox="0.00 0.00 158.00 686.00" xmlns="http://www.w3.org/2000/svg" xmlns:xlink="http://www.w3.org/1999/xlink">
<g id="graph0" class="graph" transform="scale(1 1) rotate(0) translate(4 681.5)">
<title>vqvae_no_ste</title>
<polygon fill="white" stroke="none" points="-4,4 -4,-681.5 154,-681.5 154,4 -4,4"/>
<!-- 0 -->
<g id="node1" class="node">
<title>0</title>
<polygon fill="lightyellow" stroke="none" points="131.12,-677.5 18.88,-677.5 18.88,-642 131.12,-642 131.12,-677.5"/>
<polygon fill="none" stroke="black" points="18.88,-642 18.88,-677.5 80.62,-677.5 80.62,-642 18.88,-642"/>
<text xml:space="preserve" text-anchor="start" x="23.88" y="-662" font-family="Linux libertine" font-size="10.00">input&#45;tensor</text>
<text xml:space="preserve" text-anchor="start" x="33.25" y="-649.25" font-family="Linux libertine" font-size="10.00">depth:0</text>
<polygon fill="none" stroke="black" points="80.62,-642 80.62,-677.5 131.12,-677.5 131.12,-642 80.62,-642"/>
<text xml:space="preserve" text-anchor="start" x="85.62" y="-655.62" font-family="Linux libertine" font-size="10.00">(1, 1, 64)</text>
</g>
<!-- 1 -->
<g id="node2" class="node">
<title>1</title>
<polygon fill="#c1ffc1" stroke="none" points="147.75,-606 2.25,-606 2.25,-560.5 147.75,-560.5 147.75,-606"/>
<polygon fill="none" stroke="black" points="2.25,-560.5 2.25,-606 45.25,-606 45.25,-560.5 2.25,-560.5"/>
<text xml:space="preserve" text-anchor="start" x="7.62" y="-585.5" font-family="Linux libertine" font-size="10.00">Conv1d</text>
<text xml:space="preserve" text-anchor="start" x="7.25" y="-572.75" font-family="Linux libertine" font-size="10.00">depth:2</text>
<polygon fill="none" stroke="black" points="45.25,-583.25 45.25,-606 89,-606 89,-583.25 45.25,-583.25"/>
<text xml:space="preserve" text-anchor="start" x="54.75" y="-590.5" font-family="Linux libertine" font-size="10.00">input:</text>
<polygon fill="none" stroke="black" points="89,-583.25 89,-606 147.75,-606 147.75,-583.25 89,-583.25"/>
<text xml:space="preserve" text-anchor="start" x="96.62" y="-590.5" font-family="Linux libertine" font-size="10.00">(1, 1, 64) </text>
<polygon fill="none" stroke="black" points="45.25,-560.5 45.25,-583.25 89,-583.25 89,-560.5 45.25,-560.5"/>
<text xml:space="preserve" text-anchor="start" x="50.25" y="-567.75" font-family="Linux libertine" font-size="10.00">output: </text>
<polygon fill="none" stroke="black" points="89,-560.5 89,-583.25 147.75,-583.25 147.75,-560.5 89,-560.5"/>
<text xml:space="preserve" text-anchor="start" x="94" y="-567.75" font-family="Linux libertine" font-size="10.00">(1, 64, 64) </text>
</g>
<!-- 0&#45;&gt;1 -->
<g id="edge1" class="edge">
<title>0&#45;&gt;1</title>
<path fill="none" stroke="black" d="M75,-642.22C75,-634.85 75,-625.89 75,-617.25"/>
<polygon fill="black" stroke="black" points="78.5,-617.35 75,-607.35 71.5,-617.35 78.5,-617.35"/>
</g>
<!-- 2 -->
<g id="node3" class="node">
<title>2</title>
<polygon fill="#c1ffc1" stroke="none" points="147.75,-524.5 2.25,-524.5 2.25,-479 147.75,-479 147.75,-524.5"/>
<polygon fill="none" stroke="black" points="2.25,-479 2.25,-524.5 45.25,-524.5 45.25,-479 2.25,-479"/>
<text xml:space="preserve" text-anchor="start" x="12.12" y="-504" font-family="Linux libertine" font-size="10.00">ReLU</text>
<text xml:space="preserve" text-anchor="start" x="7.25" y="-491.25" font-family="Linux libertine" font-size="10.00">depth:2</text>
<polygon fill="none" stroke="black" points="45.25,-501.75 45.25,-524.5 89,-524.5 89,-501.75 45.25,-501.75"/>
<text xml:space="preserve" text-anchor="start" x="54.75" y="-509" font-family="Linux libertine" font-size="10.00">input:</text>
<polygon fill="none" stroke="black" points="89,-501.75 89,-524.5 147.75,-524.5 147.75,-501.75 89,-501.75"/>
<text xml:space="preserve" text-anchor="start" x="94" y="-509" font-family="Linux libertine" font-size="10.00">(1, 64, 64) </text>
<polygon fill="none" stroke="black" points="45.25,-479 45.25,-501.75 89,-501.75 89,-479 45.25,-479"/>
<text xml:space="preserve" text-anchor="start" x="50.25" y="-486.25" font-family="Linux libertine" font-size="10.00">output: </text>
<polygon fill="none" stroke="black" points="89,-479 89,-501.75 147.75,-501.75 147.75,-479 89,-479"/>
<text xml:space="preserve" text-anchor="start" x="94" y="-486.25" font-family="Linux libertine" font-size="10.00">(1, 64, 64) </text>
</g>
<!-- 1&#45;&gt;2 -->
<g id="edge2" class="edge">
<title>1&#45;&gt;2</title>
<path fill="none" stroke="black" d="M75,-560.53C75,-552.9 75,-544.15 75,-535.81"/>
<polygon fill="black" stroke="black" points="78.5,-535.96 75,-525.96 71.5,-535.96 78.5,-535.96"/>
</g>
<!-- 3 -->
<g id="node4" class="node">
<title>3</title>
<polygon fill="#c1ffc1" stroke="none" points="147.75,-443 2.25,-443 2.25,-397.5 147.75,-397.5 147.75,-443"/>
<polygon fill="none" stroke="black" points="2.25,-397.5 2.25,-443 45.25,-443 45.25,-397.5 2.25,-397.5"/>
<text xml:space="preserve" text-anchor="start" x="7.62" y="-422.5" font-family="Linux libertine" font-size="10.00">Conv1d</text>
<text xml:space="preserve" text-anchor="start" x="7.25" y="-409.75" font-family="Linux libertine" font-size="10.00">depth:2</text>
<polygon fill="none" stroke="black" points="45.25,-420.25 45.25,-443 89,-443 89,-420.25 45.25,-420.25"/>
<text xml:space="preserve" text-anchor="start" x="54.75" y="-427.5" font-family="Linux libertine" font-size="10.00">input:</text>
<polygon fill="none" stroke="black" points="89,-420.25 89,-443 147.75,-443 147.75,-420.25 89,-420.25"/>
<text xml:space="preserve" text-anchor="start" x="94" y="-427.5" font-family="Linux libertine" font-size="10.00">(1, 64, 64) </text>
<polygon fill="none" stroke="black" points="45.25,-397.5 45.25,-420.25 89,-420.25 89,-397.5 45.25,-397.5"/>
<text xml:space="preserve" text-anchor="start" x="50.25" y="-404.75" font-family="Linux libertine" font-size="10.00">output: </text>
<polygon fill="none" stroke="black" points="89,-397.5 89,-420.25 147.75,-420.25 147.75,-397.5 89,-397.5"/>
<text xml:space="preserve" text-anchor="start" x="94" y="-404.75" font-family="Linux libertine" font-size="10.00">(1, 64, 64) </text>
</g>
<!-- 2&#45;&gt;3 -->
<g id="edge3" class="edge">
<title>2&#45;&gt;3</title>
<path fill="none" stroke="black" d="M75,-479.03C75,-471.4 75,-462.65 75,-454.31"/>
<polygon fill="black" stroke="black" points="78.5,-454.46 75,-444.46 71.5,-454.46 78.5,-454.46"/>
</g>
<!-- 4 -->
<g id="node5" class="node">
<title>4</title>
<polygon fill="#c1ffc1" stroke="none" points="150,-361.5 0,-361.5 0,-316 150,-316 150,-361.5"/>
<polygon fill="none" stroke="black" points="0,-316 0,-361.5 47.5,-361.5 47.5,-316 0,-316"/>
<text xml:space="preserve" text-anchor="start" x="5" y="-341" font-family="Linux libertine" font-size="10.00">Quantize</text>
<text xml:space="preserve" text-anchor="start" x="7.25" y="-328.25" font-family="Linux libertine" font-size="10.00">depth:2</text>
<polygon fill="none" stroke="black" points="47.5,-338.75 47.5,-361.5 91.25,-361.5 91.25,-338.75 47.5,-338.75"/>
<text xml:space="preserve" text-anchor="start" x="57" y="-346" font-family="Linux libertine" font-size="10.00">input:</text>
<polygon fill="none" stroke="black" points="91.25,-338.75 91.25,-361.5 150,-361.5 150,-338.75 91.25,-338.75"/>
<text xml:space="preserve" text-anchor="start" x="96.25" y="-346" font-family="Linux libertine" font-size="10.00">(1, 64, 64) </text>
<polygon fill="none" stroke="black" points="47.5,-316 47.5,-338.75 91.25,-338.75 91.25,-316 47.5,-316"/>
<text xml:space="preserve" text-anchor="start" x="52.5" y="-323.25" font-family="Linux libertine" font-size="10.00">output: </text>
<polygon fill="none" stroke="black" points="91.25,-316 91.25,-338.75 150,-338.75 150,-316 91.25,-316"/>
<text xml:space="preserve" text-anchor="start" x="96.25" y="-323.25" font-family="Linux libertine" font-size="10.00">(1, 64, 64) </text>
</g>
<!-- 3&#45;&gt;4 -->
<g id="edge4" class="edge">
<title>3&#45;&gt;4</title>
<path fill="none" stroke="black" d="M75,-397.53C75,-389.9 75,-381.15 75,-372.81"/>
<polygon fill="black" stroke="black" points="78.5,-372.96 75,-362.96 71.5,-372.96 78.5,-372.96"/>
</g>
<!-- 5 -->
<g id="node6" class="node">
<title>5</title>
<polygon fill="#c1ffc1" stroke="none" points="147.75,-280 2.25,-280 2.25,-234.5 147.75,-234.5 147.75,-280"/>
<polygon fill="none" stroke="black" points="2.25,-234.5 2.25,-280 45.25,-280 45.25,-234.5 2.25,-234.5"/>
<text xml:space="preserve" text-anchor="start" x="7.62" y="-259.5" font-family="Linux libertine" font-size="10.00">Conv1d</text>
<text xml:space="preserve" text-anchor="start" x="7.25" y="-246.75" font-family="Linux libertine" font-size="10.00">depth:2</text>
<polygon fill="none" stroke="black" points="45.25,-257.25 45.25,-280 89,-280 89,-257.25 45.25,-257.25"/>
<text xml:space="preserve" text-anchor="start" x="54.75" y="-264.5" font-family="Linux libertine" font-size="10.00">input:</text>
<polygon fill="none" stroke="black" points="89,-257.25 89,-280 147.75,-280 147.75,-257.25 89,-257.25"/>
<text xml:space="preserve" text-anchor="start" x="94" y="-264.5" font-family="Linux libertine" font-size="10.00">(1, 64, 64) </text>
<polygon fill="none" stroke="black" points="45.25,-234.5 45.25,-257.25 89,-257.25 89,-234.5 45.25,-234.5"/>
<text xml:space="preserve" text-anchor="start" x="50.25" y="-241.75" font-family="Linux libertine" font-size="10.00">output: </text>
<polygon fill="none" stroke="black" points="89,-234.5 89,-257.25 147.75,-257.25 147.75,-234.5 89,-234.5"/>
<text xml:space="preserve" text-anchor="start" x="94" y="-241.75" font-family="Linux libertine" font-size="10.00">(1, 64, 64) </text>
</g>
<!-- 4&#45;&gt;5 -->
<g id="edge5" class="edge">
<title>4&#45;&gt;5</title>
<path fill="none" stroke="black" d="M75,-316.03C75,-308.4 75,-299.65 75,-291.31"/>
<polygon fill="black" stroke="black" points="78.5,-291.46 75,-281.46 71.5,-291.46 78.5,-291.46"/>
</g>
<!-- 6 -->
<g id="node7" class="node">
<title>6</title>
<polygon fill="#c1ffc1" stroke="none" points="147.75,-198.5 2.25,-198.5 2.25,-153 147.75,-153 147.75,-198.5"/>
<polygon fill="none" stroke="black" points="2.25,-153 2.25,-198.5 45.25,-198.5 45.25,-153 2.25,-153"/>
<text xml:space="preserve" text-anchor="start" x="12.12" y="-178" font-family="Linux libertine" font-size="10.00">ReLU</text>
<text xml:space="preserve" text-anchor="start" x="7.25" y="-165.25" font-family="Linux libertine" font-size="10.00">depth:2</text>
<polygon fill="none" stroke="black" points="45.25,-175.75 45.25,-198.5 89,-198.5 89,-175.75 45.25,-175.75"/>
<text xml:space="preserve" text-anchor="start" x="54.75" y="-183" font-family="Linux libertine" font-size="10.00">input:</text>
<polygon fill="none" stroke="black" points="89,-175.75 89,-198.5 147.75,-198.5 147.75,-175.75 89,-175.75"/>
<text xml:space="preserve" text-anchor="start" x="94" y="-183" font-family="Linux libertine" font-size="10.00">(1, 64, 64) </text>
<polygon fill="none" stroke="black" points="45.25,-153 45.25,-175.75 89,-175.75 89,-153 45.25,-153"/>
<text xml:space="preserve" text-anchor="start" x="50.25" y="-160.25" font-family="Linux libertine" font-size="10.00">output: </text>
<polygon fill="none" stroke="black" points="89,-153 89,-175.75 147.75,-175.75 147.75,-153 89,-153"/>
<text xml:space="preserve" text-anchor="start" x="94" y="-160.25" font-family="Linux libertine" font-size="10.00">(1, 64, 64) </text>
</g>
<!-- 5&#45;&gt;6 -->
<g id="edge6" class="edge">
<title>5&#45;&gt;6</title>
<path fill="none" stroke="black" d="M75,-234.53C75,-226.9 75,-218.15 75,-209.81"/>
<polygon fill="black" stroke="black" points="78.5,-209.96 75,-199.96 71.5,-209.96 78.5,-209.96"/>
</g>
<!-- 7 -->
<g id="node8" class="node">
<title>7</title>
<polygon fill="#c1ffc1" stroke="none" points="147.75,-117 2.25,-117 2.25,-71.5 147.75,-71.5 147.75,-117"/>
<polygon fill="none" stroke="black" points="2.25,-71.5 2.25,-117 45.25,-117 45.25,-71.5 2.25,-71.5"/>
<text xml:space="preserve" text-anchor="start" x="7.62" y="-96.5" font-family="Linux libertine" font-size="10.00">Conv1d</text>
<text xml:space="preserve" text-anchor="start" x="7.25" y="-83.75" font-family="Linux libertine" font-size="10.00">depth:2</text>
<polygon fill="none" stroke="black" points="45.25,-94.25 45.25,-117 89,-117 89,-94.25 45.25,-94.25"/>
<text xml:space="preserve" text-anchor="start" x="54.75" y="-101.5" font-family="Linux libertine" font-size="10.00">input:</text>
<polygon fill="none" stroke="black" points="89,-94.25 89,-117 147.75,-117 147.75,-94.25 89,-94.25"/>
<text xml:space="preserve" text-anchor="start" x="94" y="-101.5" font-family="Linux libertine" font-size="10.00">(1, 64, 64) </text>
<polygon fill="none" stroke="black" points="45.25,-71.5 45.25,-94.25 89,-94.25 89,-71.5 45.25,-71.5"/>
<text xml:space="preserve" text-anchor="start" x="50.25" y="-78.75" font-family="Linux libertine" font-size="10.00">output: </text>
<polygon fill="none" stroke="black" points="89,-71.5 89,-94.25 147.75,-94.25 147.75,-71.5 89,-71.5"/>
<text xml:space="preserve" text-anchor="start" x="96.62" y="-78.75" font-family="Linux libertine" font-size="10.00">(1, 1, 64) </text>
</g>
<!-- 6&#45;&gt;7 -->
<g id="edge7" class="edge">
<title>6&#45;&gt;7</title>
<path fill="none" stroke="black" d="M75,-153.03C75,-145.4 75,-136.65 75,-128.31"/>
<polygon fill="black" stroke="black" points="78.5,-128.46 75,-118.46 71.5,-128.46 78.5,-128.46"/>
</g>
<!-- 8 -->
<g id="node9" class="node">
<title>8</title>
<polygon fill="lightyellow" stroke="none" points="134.12,-35.5 15.88,-35.5 15.88,0 134.12,0 134.12,-35.5"/>
<polygon fill="none" stroke="black" points="15.88,0 15.88,-35.5 83.62,-35.5 83.62,0 15.88,0"/>
<text xml:space="preserve" text-anchor="start" x="20.88" y="-20" font-family="Linux libertine" font-size="10.00">output&#45;tensor</text>
<text xml:space="preserve" text-anchor="start" x="33.25" y="-7.25" font-family="Linux libertine" font-size="10.00">depth:0</text>
<polygon fill="none" stroke="black" points="83.62,0 83.62,-35.5 134.12,-35.5 134.12,0 83.62,0"/>
<text xml:space="preserve" text-anchor="start" x="88.62" y="-13.62" font-family="Linux libertine" font-size="10.00">(1, 1, 64)</text>
</g>
<!-- 7&#45;&gt;8 -->
<g id="edge8" class="edge">
<title>7&#45;&gt;8</title>
<path fill="none" stroke="black" d="M75,-71.7C75,-63.85 75,-54.85 75,-46.54"/>
<polygon fill="black" stroke="black" points="78.5,-46.56 75,-36.56 71.5,-46.56 78.5,-46.56"/>
</g>
</g>
</svg>
