<?xml version="1.0" encoding="UTF-8" standalone="no"?>
<!DOCTYPE svg PUBLIC "-//W3C//DTD SVG 1.1//EN"
 "http://www.w3.org/Graphics/SVG/1.1/DTD/svg11.dtd">
<!-- Generated by graphviz version 15.1.0 (20260618.0150)
 -->
<!-- Title: vqvae_with_ste Pages: 1 -->
<svg width="333pt" height="1210pt"
 viewBox="0.00 0.00 333.00 1210.00" xmlns="http://www.w3.org/2000/svg" xmlns:xlink="http://www.w3.org/1999/xlink">
<g id="graph0" class="graph" transform="scale(0.746568 0.746568) rotate(0) translate(4 1616.75)">
<title>vqvae_with_ste</title>
<polygon fill="white" stroke="none" points="-4,4 -4,-1616.75 442,-1616.75 442,4 -4,4"/>
<g id="clust1" class="cluster">
<title>cluster_2</title>
<polygon fill="none" stroke="black" stroke-dasharray="5,2" points="268,-1322.5 268,-1569.25 430,-1569.25 430,-1322.5 268,-1322.5"/>
<text xml:space="preserve" text-anchor="middle" x="295.88" y="-1553.85" font-family="Times New Roman,serif" font-size="12.00">Encoder</text>
</g>
<g id="clust2" class="cluster">
<title>cluster_3</title>
<polygon fill="none" stroke="black" stroke-dasharray="5,2" points="8,-334.25 8,-1314.5 310,-1314.5 310,-334.25 8,-334.25"/>
<text xml:space="preserve" text-anchor="middle" x="50.12" y="-1299.1" font-family="Times New Roman,serif" font-size="12.00">QuantizerSTE</text>
</g>
<g id="clust3" class="cluster">
<title>cluster_4</title>
<polygon fill="none" stroke="black" stroke-dasharray="5,2" points="140,-8 140,-326.25 302,-326.25 302,-8 140,-8"/>
<text xml:space="preserve" text-anchor="middle" x="168.25" y="-310.85" font-family="Times New Roman,serif" font-size="12.00">Decoder</text>
</g>
<!-- 0 -->
<g id="node1" class="node">
<title>0</title>
<polygon fill="lightyellow" stroke="none" points="405.12,-1612.75 292.88,-1612.75 292.88,-1577.25 405.12,-1577.25 405.12,-1612.75"/>
<polygon fill="none" stroke="black" points="292.88,-1577.25 292.88,-1612.75 354.62,-1612.75 354.62,-1577.25 292.88,-1577.25"/>
<text xml:space="preserve" text-anchor="start" x="297.88" y="-1597.25" font-family="Linux libertine" font-size="10.00">input&#45;tensor</text>
<text xml:space="preserve" text-anchor="start" x="307.25" y="-1584.5" font-family="Linux libertine" font-size="10.00">depth:0</text>
<polygon fill="none" stroke="black" points="354.62,-1577.25 354.62,-1612.75 405.12,-1612.75 405.12,-1577.25 354.62,-1577.25"/>
<text xml:space="preserve" text-anchor="start" x="359.62" y="-1590.88" font-family="Linux libertine" font-size="10.00">(1, 1, 64)</text>
</g>
<!-- 1 -->
<g id="node2" class="node">
<title>1</title>
<polygon fill="#c1ffc1" stroke="none" points="421.75,-1539 276.25,-1539 276.25,-1493.5 421.75,-1493.5 421.75,-1539"/>
<polygon fill="none" stroke="black" points="276.25,-1493.5 276.25,-1539 319.25,-1539 319.25,-1493.5 276.25,-1493.5"/>
<text xml:space="preserve" text-anchor="start" x="281.62" y="-1518.5" font-family="Linux libertine" font-size="10.00">Conv1d</text>
<text xml:space="preserve" text-anchor="start" x="281.25" y="-1505.75" font-family="Linux libertine" font-size="10.00">depth:2</text>
<polygon fill="none" stroke="black" points="319.25,-1516.25 319.25,-1539 363,-1539 363,-1516.25 319.25,-1516.25"/>
<text xml:space="preserve" text-anchor="start" x="328.75" y="-1523.5" font-family="Linux libertine" font-size="10.00">input:</text>
<polygon fill="none" stroke="black" points="363,-1516.25 363,-1539 421.75,-1539 421.75,-1516.25 363,-1516.25"/>
<text xml:space="preserve" text-anchor="start" x="370.62" y="-1523.5" font-family="Linux libertine" font-size="10.00">(1, 1, 64) </text>
<polygon fill="none" stroke="black" points="319.25,-1493.5 319.25,-1516.25 363,-1516.25 363,-1493.5 319.25,-1493.5"/>
<text xml:space="preserve" text-anchor="start" x="324.25" y="-1500.75" font-family="Linux libertine" font-size="10.00">output: </text>
<polygon fill="none" stroke="black" points="363,-1493.5 363,-1516.25 421.75,-1516.25 421.75,-1493.5 363,-1493.5"/>
<text xml:space="preserve" text-anchor="start" x="368" y="-1500.75" font-family="Linux libertine" font-size="10.00">(1, 64, 64) </text>
</g>
<!-- 0&#45;&gt;1 -->
<g id="edge1" class="edge">
<title>0&#45;&gt;1</title>
<path fill="none" stroke="black" d="M349,-1577.35C349,-1569.41 349,-1559.63 349,-1550.28"/>
<polygon fill="black" stroke="black" points="352.5,-1550.35 349,-1540.35 345.5,-1550.35 352.5,-1550.35"/>
</g>
<!-- 2 -->
<g id="node3" class="node">
<title>2</title>
<polygon fill="#c1ffc1" stroke="none" points="421.75,-1457.5 276.25,-1457.5 276.25,-1412 421.75,-1412 421.75,-1457.5"/>
<polygon fill="none" stroke="black" points="276.25,-1412 276.25,-1457.5 319.25,-1457.5 319.25,-1412 276.25,-1412"/>
<text xml:space="preserve" text-anchor="start" x="286.12" y="-1437" font-family="Linux libertine" font-size="10.00">ReLU</text>
<text xml:space="preserve" text-anchor="start" x="281.25" y="-1424.25" font-family="Linux libertine" font-size="10.00">depth:2</text>
<polygon fill="none" stroke="black" points="319.25,-1434.75 319.25,-1457.5 363,-1457.5 363,-1434.75 319.25,-1434.75"/>
<text xml:space="preserve" text-anchor="start" x="328.75" y="-1442" font-family="Linux libertine" font-size="10.00">input:</text>
<polygon fill="none" stroke="black" points="363,-1434.75 363,-1457.5 421.75,-1457.5 421.75,-1434.75 363,-1434.75"/>
<text xml:space="preserve" text-anchor="start" x="368" y="-1442" font-family="Linux libertine" font-size="10.00">(1, 64, 64) </text>
<polygon fill="none" stroke="black" points="319.25,-1412 319.25,-1434.75 363,-1434.75 363,-1412 319.25,-1412"/>
<text xml:space="preserve" text-anchor="start" x="324.25" y="-1419.25" font-family="Linux libertine" font-size="10.00">output: </text>
<polygon fill="none" stroke="black" points="363,-1412 363,-1434.75 421.75,-1434.75 421.75,-1412 363,-1412"/>
<text xml:space="preserve" text-anchor="start" x="368" y="-1419.25" font-family="Linux libertine" font-size="10.00">(1, 64, 64) </text>
</g>
<!-- 1&#45;&gt;2 -->
<g id="edge2" class="edge">
<title>1&#45;&gt;2</title>
<path fill="none" stroke="black" d="M349,-1493.53C349,-1485.9 349,-1477.15 349,-1468.81"/>
<polygon fill="black" stroke="black" points="352.5,-1468.96 349,-1458.96 345.5,-1468.96 352.5,-1468.96"/>
</g>
<!-- 3 -->
<g id="node4" class="node">
<title>3</title>
<polygon fill="#c1ffc1" stroke="none" points="421.75,-1376 276.25,-1376 276.25,-1330.5 421.75,-1330.5 421.75,-1376"/>
<polygon fill="none" stroke="black" points="276.25,-1330.5 276.25,-1376 319.25,-1376 319.25,-1330.5 276.25,-1330.5"/>
<text xml:space="preserve" text-anchor="start" x="281.62" y="-1355.5" font-family="Linux libertine" font-size="10.00">Conv1d</text>
<text xml:space="preserve" text-anchor="start" x="281.25" y="-1342.75" font-family="Linux libertine" font-size="10.00">depth:2</text>
<polygon fill="none" stroke="black" points="319.25,-1353.25 319.25,-1376 363,-1376 363,-1353.25 319.25,-1353.25"/>
<text xml:space="preserve" text-anchor="start" x="328.75" y="-1360.5" font-family="Linux libertine" font-size="10.00">input:</text>
<polygon fill="none" stroke="black" points="363,-1353.25 363,-1376 421.75,-1376 421.75,-1353.25 363,-1353.25"/>
<text xml:space="preserve" text-anchor="start" x="368" y="-1360.5" font-family="Linux libertine" font-size="10.00">(1, 64, 64) </text>
<polygon fill="none" stroke="black" points="319.25,-1330.5 319.25,-1353.25 363,-1353.25 363,-1330.5 319.25,-1330.5"/>
<text xml:space="preserve" text-anchor="start" x="324.25" y="-1337.75" font-family="Linux libertine" font-size="10.00">output: </text>
<polygon fill="none" stroke="black" points="363,-1330.5 363,-1353.25 421.75,-1353.25 421.75,-1330.5 363,-1330.5"/>
<text xml:space="preserve" text-anchor="start" x="368" y="-1337.75" font-family="Linux libertine" font-size="10.00">(1, 64, 64) </text>
</g>
<!-- 2&#45;&gt;3 -->
<g id="edge3" class="edge">
<title>2&#45;&gt;3</title>
<path fill="none" stroke="black" d="M349,-1412.03C349,-1404.4 349,-1395.65 349,-1387.31"/>
<polygon fill="black" stroke="black" points="352.5,-1387.46 349,-1377.46 345.5,-1387.46 352.5,-1387.46"/>
</g>
<!-- 4 -->
<g id="node5" class="node">
<title>4</title>
<polygon fill="aliceblue" stroke="none" points="302.25,-1284.25 153.75,-1284.25 153.75,-1238.75 302.25,-1238.75 302.25,-1284.25"/>
<polygon fill="none" stroke="black" points="153.75,-1238.75 153.75,-1284.25 199.75,-1284.25 199.75,-1238.75 153.75,-1238.75"/>
<text xml:space="preserve" text-anchor="start" x="158.75" y="-1263.75" font-family="Linux libertine" font-size="10.00">permute</text>
<text xml:space="preserve" text-anchor="start" x="160.25" y="-1251" font-family="Linux libertine" font-size="10.00">depth:2</text>
<polygon fill="none" stroke="black" points="199.75,-1261.5 199.75,-1284.25 243.5,-1284.25 243.5,-1261.5 199.75,-1261.5"/>
<text xml:space="preserve" text-anchor="start" x="209.25" y="-1268.75" font-family="Linux libertine" font-size="10.00">input:</text>
<polygon fill="none" stroke="black" points="243.5,-1261.5 243.5,-1284.25 302.25,-1284.25 302.25,-1261.5 243.5,-1261.5"/>
<text xml:space="preserve" text-anchor="start" x="248.5" y="-1268.75" font-family="Linux libertine" font-size="10.00">(1, 64, 64) </text>
<polygon fill="none" stroke="black" points="199.75,-1238.75 199.75,-1261.5 243.5,-1261.5 243.5,-1238.75 199.75,-1238.75"/>
<text xml:space="preserve" text-anchor="start" x="204.75" y="-1246" font-family="Linux libertine" font-size="10.00">output: </text>
<polygon fill="none" stroke="black" points="243.5,-1238.75 243.5,-1261.5 302.25,-1261.5 302.25,-1238.75 243.5,-1238.75"/>
<text xml:space="preserve" text-anchor="start" x="248.5" y="-1246" font-family="Linux libertine" font-size="10.00">(1, 64, 64) </text>
</g>
<!-- 3&#45;&gt;4 -->
<g id="edge4" class="edge">
<title>3&#45;&gt;4</title>
<path fill="none" stroke="black" d="M319.71,-1330.52C303.51,-1318.51 283.2,-1303.44 265.81,-1290.54"/>
<polygon fill="black" stroke="black" points="268.35,-1288.07 258.24,-1284.93 264.18,-1293.7 268.35,-1288.07"/>
</g>
<!-- 14 -->
<g id="node15" class="node">
<title>14</title>
<polygon fill="aliceblue" stroke="none" points="302.12,-632.25 113.88,-632.25 113.88,-586.75 302.12,-586.75 302.12,-632.25"/>
<polygon fill="none" stroke="black" points="113.88,-586.75 113.88,-632.25 159.12,-632.25 159.12,-586.75 113.88,-586.75"/>
<text xml:space="preserve" text-anchor="start" x="118.88" y="-611.75" font-family="Linux libertine" font-size="10.00">view_as</text>
<text xml:space="preserve" text-anchor="start" x="120" y="-599" font-family="Linux libertine" font-size="10.00">depth:2</text>
<polygon fill="none" stroke="black" points="159.12,-609.5 159.12,-632.25 202.88,-632.25 202.88,-609.5 159.12,-609.5"/>
<text xml:space="preserve" text-anchor="start" x="168.62" y="-616.75" font-family="Linux libertine" font-size="10.00">input:</text>
<polygon fill="none" stroke="black" points="202.88,-609.5 202.88,-632.25 302.12,-632.25 302.12,-609.5 202.88,-609.5"/>
<text xml:space="preserve" text-anchor="start" x="207.88" y="-616.75" font-family="Linux libertine" font-size="10.00">(64, 64), (1, 64, 64) </text>
<polygon fill="none" stroke="black" points="159.12,-586.75 159.12,-609.5 202.88,-609.5 202.88,-586.75 159.12,-586.75"/>
<text xml:space="preserve" text-anchor="start" x="164.12" y="-594" font-family="Linux libertine" font-size="10.00">output: </text>
<polygon fill="none" stroke="black" points="202.88,-586.75 202.88,-609.5 302.12,-609.5 302.12,-586.75 202.88,-586.75"/>
<text xml:space="preserve" text-anchor="start" x="228.12" y="-594" font-family="Linux libertine" font-size="10.00">(1, 64, 64) </text>
</g>
<!-- 3&#45;&gt;14 -->
<g id="edge5" class="edge">
<title>3&#45;&gt;14</title>
<path fill="none" stroke="black" d="M345.06,-1330.71C339.5,-1298.33 330,-1235.14 330,-1181 330,-1181 330,-1181 330,-771.5 330,-722.45 321.15,-706.94 291,-668.25 282.14,-656.89 270.44,-646.88 258.62,-638.52"/>
<polygon fill="black" stroke="black" points="260.68,-635.68 250.42,-633.01 256.77,-641.49 260.68,-635.68"/>
</g>
<!-- 15 -->
<g id="node16" class="node">
<title>15</title>
<polygon fill="aliceblue" stroke="none" points="302,-550.75 140,-550.75 140,-505.25 302,-505.25 302,-550.75"/>
<polygon fill="none" stroke="black" points="140,-505.25 140,-550.75 183,-550.75 183,-505.25 140,-505.25"/>
<text xml:space="preserve" text-anchor="start" x="154" y="-530.25" font-family="Linux libertine" font-size="10.00">sub</text>
<text xml:space="preserve" text-anchor="start" x="145" y="-517.5" font-family="Linux libertine" font-size="10.00">depth:2</text>
<polygon fill="none" stroke="black" points="183,-528 183,-550.75 226.75,-550.75 226.75,-528 183,-528"/>
<text xml:space="preserve" text-anchor="start" x="192.5" y="-535.25" font-family="Linux libertine" font-size="10.00">input:</text>
<polygon fill="none" stroke="black" points="226.75,-528 226.75,-550.75 302,-550.75 302,-528 226.75,-528"/>
<text xml:space="preserve" text-anchor="start" x="231.75" y="-535.25" font-family="Linux libertine" font-size="10.00">2 x (1, 64, 64) </text>
<polygon fill="none" stroke="black" points="183,-505.25 183,-528 226.75,-528 226.75,-505.25 183,-505.25"/>
<text xml:space="preserve" text-anchor="start" x="188" y="-512.5" font-family="Linux libertine" font-size="10.00">output: </text>
<polygon fill="none" stroke="black" points="226.75,-505.25 226.75,-528 302,-528 302,-505.25 226.75,-505.25"/>
<text xml:space="preserve" text-anchor="start" x="240" y="-512.5" font-family="Linux libertine" font-size="10.00">(1, 64, 64) </text>
</g>
<!-- 3&#45;&gt;15 -->
<g id="edge6" class="edge">
<title>3&#45;&gt;15</title>
<path fill="none" stroke="black" d="M352.94,-1330.71C358.5,-1298.33 368,-1235.14 368,-1181 368,-1181 368,-1181 368,-690 368,-631.18 313.84,-584.45 271.26,-556.8"/>
<polygon fill="black" stroke="black" points="273.17,-553.86 262.84,-551.5 269.44,-559.79 273.17,-553.86"/>
</g>
<!-- 17 -->
<g id="node18" class="node">
<title>17</title>
<polygon fill="aliceblue" stroke="none" points="302,-387.75 140,-387.75 140,-342.25 302,-342.25 302,-387.75"/>
<polygon fill="none" stroke="black" points="140,-342.25 140,-387.75 183,-387.75 183,-342.25 140,-342.25"/>
<text xml:space="preserve" text-anchor="start" x="153.62" y="-367.25" font-family="Linux libertine" font-size="10.00">add</text>
<text xml:space="preserve" text-anchor="start" x="145" y="-354.5" font-family="Linux libertine" font-size="10.00">depth:2</text>
<polygon fill="none" stroke="black" points="183,-365 183,-387.75 226.75,-387.75 226.75,-365 183,-365"/>
<text xml:space="preserve" text-anchor="start" x="192.5" y="-372.25" font-family="Linux libertine" font-size="10.00">input:</text>
<polygon fill="none" stroke="black" points="226.75,-365 226.75,-387.75 302,-387.75 302,-365 226.75,-365"/>
<text xml:space="preserve" text-anchor="start" x="231.75" y="-372.25" font-family="Linux libertine" font-size="10.00">2 x (1, 64, 64) </text>
<polygon fill="none" stroke="black" points="183,-342.25 183,-365 226.75,-365 226.75,-342.25 183,-342.25"/>
<text xml:space="preserve" text-anchor="start" x="188" y="-349.5" font-family="Linux libertine" font-size="10.00">output: </text>
<polygon fill="none" stroke="black" points="226.75,-342.25 226.75,-365 302,-365 302,-342.25 226.75,-342.25"/>
<text xml:space="preserve" text-anchor="start" x="240" y="-349.5" font-family="Linux libertine" font-size="10.00">(1, 64, 64) </text>
</g>
<!-- 3&#45;&gt;17 -->
<g id="edge7" class="edge">
<title>3&#45;&gt;17</title>
<path fill="none" stroke="black" d="M365.17,-1330.63C368.45,-1325.53 371.62,-1319.98 374,-1314.5 398.33,-1258.55 406,-1242.01 406,-1181 406,-1181 406,-1181 406,-527 406,-462.73 341.69,-418.28 288.9,-392.62"/>
<polygon fill="black" stroke="black" points="290.43,-389.47 279.89,-388.38 287.45,-395.81 290.43,-389.47"/>
</g>
<!-- 5 -->
<g id="node6" class="node">
<title>5</title>
<polygon fill="aliceblue" stroke="none" points="301.5,-1202.75 154.5,-1202.75 154.5,-1157.25 301.5,-1157.25 301.5,-1202.75"/>
<polygon fill="none" stroke="black" points="154.5,-1157.25 154.5,-1202.75 199,-1202.75 199,-1157.25 154.5,-1157.25"/>
<text xml:space="preserve" text-anchor="start" x="159.5" y="-1182.25" font-family="Linux libertine" font-size="10.00">reshape</text>
<text xml:space="preserve" text-anchor="start" x="160.25" y="-1169.5" font-family="Linux libertine" font-size="10.00">depth:2</text>
<polygon fill="none" stroke="black" points="199,-1180 199,-1202.75 242.75,-1202.75 242.75,-1180 199,-1180"/>
<text xml:space="preserve" text-anchor="start" x="208.5" y="-1187.25" font-family="Linux libertine" font-size="10.00">input:</text>
<polygon fill="none" stroke="black" points="242.75,-1180 242.75,-1202.75 301.5,-1202.75 301.5,-1180 242.75,-1180"/>
<text xml:space="preserve" text-anchor="start" x="247.75" y="-1187.25" font-family="Linux libertine" font-size="10.00">(1, 64, 64) </text>
<polygon fill="none" stroke="black" points="199,-1157.25 199,-1180 242.75,-1180 242.75,-1157.25 199,-1157.25"/>
<text xml:space="preserve" text-anchor="start" x="204" y="-1164.5" font-family="Linux libertine" font-size="10.00">output: </text>
<polygon fill="none" stroke="black" points="242.75,-1157.25 242.75,-1180 301.5,-1180 301.5,-1157.25 242.75,-1157.25"/>
<text xml:space="preserve" text-anchor="start" x="253.38" y="-1164.5" font-family="Linux libertine" font-size="10.00">(64, 64) </text>
</g>
<!-- 4&#45;&gt;5 -->
<g id="edge8" class="edge">
<title>4&#45;&gt;5</title>
<path fill="none" stroke="black" d="M228,-1238.78C228,-1231.15 228,-1222.4 228,-1214.06"/>
<polygon fill="black" stroke="black" points="231.5,-1214.21 228,-1204.21 224.5,-1214.21 231.5,-1214.21"/>
</g>
<!-- 6 -->
<g id="node7" class="node">
<title>6</title>
<polygon fill="aliceblue" stroke="none" points="150.12,-1121.25 15.88,-1121.25 15.88,-1075.75 150.12,-1075.75 150.12,-1121.25"/>
<polygon fill="none" stroke="black" points="15.88,-1075.75 15.88,-1121.25 58.88,-1121.25 58.88,-1075.75 15.88,-1075.75"/>
<text xml:space="preserve" text-anchor="start" x="28.38" y="-1100.75" font-family="Linux libertine" font-size="10.00">pow</text>
<text xml:space="preserve" text-anchor="start" x="20.88" y="-1088" font-family="Linux libertine" font-size="10.00">depth:2</text>
<polygon fill="none" stroke="black" points="58.88,-1098.5 58.88,-1121.25 102.62,-1121.25 102.62,-1098.5 58.88,-1098.5"/>
<text xml:space="preserve" text-anchor="start" x="68.38" y="-1105.75" font-family="Linux libertine" font-size="10.00">input:</text>
<polygon fill="none" stroke="black" points="102.62,-1098.5 102.62,-1121.25 150.12,-1121.25 150.12,-1098.5 102.62,-1098.5"/>
<text xml:space="preserve" text-anchor="start" x="107.62" y="-1105.75" font-family="Linux libertine" font-size="10.00">(64, 64) </text>
<polygon fill="none" stroke="black" points="58.88,-1075.75 58.88,-1098.5 102.62,-1098.5 102.62,-1075.75 58.88,-1075.75"/>
<text xml:space="preserve" text-anchor="start" x="63.88" y="-1083" font-family="Linux libertine" font-size="10.00">output: </text>
<polygon fill="none" stroke="black" points="102.62,-1075.75 102.62,-1098.5 150.12,-1098.5 150.12,-1075.75 102.62,-1075.75"/>
<text xml:space="preserve" text-anchor="start" x="107.62" y="-1083" font-family="Linux libertine" font-size="10.00">(64, 64) </text>
</g>
<!-- 5&#45;&gt;6 -->
<g id="edge9" class="edge">
<title>5&#45;&gt;6</title>
<path fill="none" stroke="black" d="M188.38,-1157.28C171.12,-1147.81 150.7,-1136.62 132.45,-1126.61"/>
<polygon fill="black" stroke="black" points="134.35,-1123.66 123.9,-1121.93 130.99,-1129.8 134.35,-1123.66"/>
</g>
<!-- 8 -->
<g id="node9" class="node">
<title>8</title>
<polygon fill="aliceblue" stroke="none" points="302.12,-1121.25 167.88,-1121.25 167.88,-1075.75 302.12,-1075.75 302.12,-1121.25"/>
<polygon fill="none" stroke="black" points="167.88,-1075.75 167.88,-1121.25 210.88,-1121.25 210.88,-1075.75 167.88,-1075.75"/>
<text xml:space="preserve" text-anchor="start" x="181.5" y="-1100.75" font-family="Linux libertine" font-size="10.00">mul</text>
<text xml:space="preserve" text-anchor="start" x="172.88" y="-1088" font-family="Linux libertine" font-size="10.00">depth:2</text>
<polygon fill="none" stroke="black" points="210.88,-1098.5 210.88,-1121.25 254.62,-1121.25 254.62,-1098.5 210.88,-1098.5"/>
<text xml:space="preserve" text-anchor="start" x="220.38" y="-1105.75" font-family="Linux libertine" font-size="10.00">input:</text>
<polygon fill="none" stroke="black" points="254.62,-1098.5 254.62,-1121.25 302.12,-1121.25 302.12,-1098.5 254.62,-1098.5"/>
<text xml:space="preserve" text-anchor="start" x="259.62" y="-1105.75" font-family="Linux libertine" font-size="10.00">(64, 64) </text>
<polygon fill="none" stroke="black" points="210.88,-1075.75 210.88,-1098.5 254.62,-1098.5 254.62,-1075.75 210.88,-1075.75"/>
<text xml:space="preserve" text-anchor="start" x="215.88" y="-1083" font-family="Linux libertine" font-size="10.00">output: </text>
<polygon fill="none" stroke="black" points="254.62,-1075.75 254.62,-1098.5 302.12,-1098.5 302.12,-1075.75 254.62,-1075.75"/>
<text xml:space="preserve" text-anchor="start" x="259.62" y="-1083" font-family="Linux libertine" font-size="10.00">(64, 64) </text>
</g>
<!-- 5&#45;&gt;8 -->
<g id="edge10" class="edge">
<title>5&#45;&gt;8</title>
<path fill="none" stroke="black" d="M229.91,-1157.28C230.58,-1149.65 231.35,-1140.9 232.09,-1132.56"/>
<polygon fill="black" stroke="black" points="235.57,-1132.97 232.96,-1122.71 228.59,-1132.36 235.57,-1132.97"/>
</g>
<!-- 7 -->
<g id="node8" class="node">
<title>7</title>
<polygon fill="aliceblue" stroke="none" points="150.12,-1039.75 15.88,-1039.75 15.88,-994.25 150.12,-994.25 150.12,-1039.75"/>
<polygon fill="none" stroke="black" points="15.88,-994.25 15.88,-1039.75 58.88,-1039.75 58.88,-994.25 15.88,-994.25"/>
<text xml:space="preserve" text-anchor="start" x="28.38" y="-1019.25" font-family="Linux libertine" font-size="10.00">sum</text>
<text xml:space="preserve" text-anchor="start" x="20.88" y="-1006.5" font-family="Linux libertine" font-size="10.00">depth:2</text>
<polygon fill="none" stroke="black" points="58.88,-1017 58.88,-1039.75 102.62,-1039.75 102.62,-1017 58.88,-1017"/>
<text xml:space="preserve" text-anchor="start" x="68.38" y="-1024.25" font-family="Linux libertine" font-size="10.00">input:</text>
<polygon fill="none" stroke="black" points="102.62,-1017 102.62,-1039.75 150.12,-1039.75 150.12,-1017 102.62,-1017"/>
<text xml:space="preserve" text-anchor="start" x="107.62" y="-1024.25" font-family="Linux libertine" font-size="10.00">(64, 64) </text>
<polygon fill="none" stroke="black" points="58.88,-994.25 58.88,-1017 102.62,-1017 102.62,-994.25 58.88,-994.25"/>
<text xml:space="preserve" text-anchor="start" x="63.88" y="-1001.5" font-family="Linux libertine" font-size="10.00">output: </text>
<polygon fill="none" stroke="black" points="102.62,-994.25 102.62,-1017 150.12,-1017 150.12,-994.25 102.62,-994.25"/>
<text xml:space="preserve" text-anchor="start" x="110.25" y="-1001.5" font-family="Linux libertine" font-size="10.00">(64, 1) </text>
</g>
<!-- 6&#45;&gt;7 -->
<g id="edge11" class="edge">
<title>6&#45;&gt;7</title>
<path fill="none" stroke="black" d="M83,-1075.78C83,-1068.15 83,-1059.4 83,-1051.06"/>
<polygon fill="black" stroke="black" points="86.5,-1051.21 83,-1041.21 79.5,-1051.21 86.5,-1051.21"/>
</g>
<!-- 10 -->
<g id="node11" class="node">
<title>10</title>
<polygon fill="aliceblue" stroke="none" points="292.75,-958.25 123.25,-958.25 123.25,-912.75 292.75,-912.75 292.75,-958.25"/>
<polygon fill="none" stroke="black" points="123.25,-912.75 123.25,-958.25 166.25,-958.25 166.25,-912.75 123.25,-912.75"/>
<text xml:space="preserve" text-anchor="start" x="137.25" y="-937.75" font-family="Linux libertine" font-size="10.00">sub</text>
<text xml:space="preserve" text-anchor="start" x="128.25" y="-925" font-family="Linux libertine" font-size="10.00">depth:2</text>
<polygon fill="none" stroke="black" points="166.25,-935.5 166.25,-958.25 210,-958.25 210,-935.5 166.25,-935.5"/>
<text xml:space="preserve" text-anchor="start" x="175.75" y="-942.75" font-family="Linux libertine" font-size="10.00">input:</text>
<polygon fill="none" stroke="black" points="210,-935.5 210,-958.25 292.75,-958.25 292.75,-935.5 210,-935.5"/>
<text xml:space="preserve" text-anchor="start" x="215" y="-942.75" font-family="Linux libertine" font-size="10.00">(64, 1), (64, 16) </text>
<polygon fill="none" stroke="black" points="166.25,-912.75 166.25,-935.5 210,-935.5 210,-912.75 166.25,-912.75"/>
<text xml:space="preserve" text-anchor="start" x="171.25" y="-920" font-family="Linux libertine" font-size="10.00">output: </text>
<polygon fill="none" stroke="black" points="210,-912.75 210,-935.5 292.75,-935.5 292.75,-912.75 210,-912.75"/>
<text xml:space="preserve" text-anchor="start" x="232.62" y="-920" font-family="Linux libertine" font-size="10.00">(64, 16) </text>
</g>
<!-- 7&#45;&gt;10 -->
<g id="edge12" class="edge">
<title>7&#45;&gt;10</title>
<path fill="none" stroke="black" d="M117.16,-994.28C131.76,-984.99 148.99,-974.03 164.49,-964.17"/>
<polygon fill="black" stroke="black" points="166.05,-967.33 172.61,-959.01 162.29,-961.42 166.05,-967.33"/>
</g>
<!-- 9 -->
<g id="node10" class="node">
<title>9</title>
<polygon fill="aliceblue" stroke="none" points="302.12,-1039.75 167.88,-1039.75 167.88,-994.25 302.12,-994.25 302.12,-1039.75"/>
<polygon fill="none" stroke="black" points="167.88,-994.25 167.88,-1039.75 210.88,-1039.75 210.88,-994.25 167.88,-994.25"/>
<text xml:space="preserve" text-anchor="start" x="173.25" y="-1019.25" font-family="Linux libertine" font-size="10.00">matmul</text>
<text xml:space="preserve" text-anchor="start" x="172.88" y="-1006.5" font-family="Linux libertine" font-size="10.00">depth:2</text>
<polygon fill="none" stroke="black" points="210.88,-1017 210.88,-1039.75 254.62,-1039.75 254.62,-1017 210.88,-1017"/>
<text xml:space="preserve" text-anchor="start" x="220.38" y="-1024.25" font-family="Linux libertine" font-size="10.00">input:</text>
<polygon fill="none" stroke="black" points="254.62,-1017 254.62,-1039.75 302.12,-1039.75 302.12,-1017 254.62,-1017"/>
<text xml:space="preserve" text-anchor="start" x="259.62" y="-1024.25" font-family="Linux libertine" font-size="10.00">(64, 64) </text>
<polygon fill="none" stroke="black" points="210.88,-994.25 210.88,-1017 254.62,-1017 254.62,-994.25 210.88,-994.25"/>
<text xml:space="preserve" text-anchor="start" x="215.88" y="-1001.5" font-family="Linux libertine" font-size="10.00">output: </text>
<polygon fill="none" stroke="black" points="254.62,-994.25 254.62,-1017 302.12,-1017 302.12,-994.25 254.62,-994.25"/>
<text xml:space="preserve" text-anchor="start" x="259.62" y="-1001.5" font-family="Linux libertine" font-size="10.00">(64, 16) </text>
</g>
<!-- 8&#45;&gt;9 -->
<g id="edge13" class="edge">
<title>8&#45;&gt;9</title>
<path fill="none" stroke="black" d="M235,-1075.78C235,-1068.15 235,-1059.4 235,-1051.06"/>
<polygon fill="black" stroke="black" points="238.5,-1051.21 235,-1041.21 231.5,-1051.21 238.5,-1051.21"/>
</g>
<!-- 9&#45;&gt;10 -->
<g id="edge14" class="edge">
<title>9&#45;&gt;10</title>
<path fill="none" stroke="black" d="M227.62,-994.28C224.97,-986.48 221.93,-977.5 219.03,-968.99"/>
<polygon fill="black" stroke="black" points="222.39,-967.97 215.86,-959.63 215.76,-970.22 222.39,-967.97"/>
</g>
<!-- 11 -->
<g id="node12" class="node">
<title>11</title>
<polygon fill="aliceblue" stroke="none" points="275.12,-876.75 140.88,-876.75 140.88,-831.25 275.12,-831.25 275.12,-876.75"/>
<polygon fill="none" stroke="black" points="140.88,-831.25 140.88,-876.75 183.88,-876.75 183.88,-831.25 140.88,-831.25"/>
<text xml:space="preserve" text-anchor="start" x="154.5" y="-856.25" font-family="Linux libertine" font-size="10.00">add</text>
<text xml:space="preserve" text-anchor="start" x="145.88" y="-843.5" font-family="Linux libertine" font-size="10.00">depth:2</text>
<polygon fill="none" stroke="black" points="183.88,-854 183.88,-876.75 227.62,-876.75 227.62,-854 183.88,-854"/>
<text xml:space="preserve" text-anchor="start" x="193.38" y="-861.25" font-family="Linux libertine" font-size="10.00">input:</text>
<polygon fill="none" stroke="black" points="227.62,-854 227.62,-876.75 275.12,-876.75 275.12,-854 227.62,-854"/>
<text xml:space="preserve" text-anchor="start" x="232.62" y="-861.25" font-family="Linux libertine" font-size="10.00">(64, 16) </text>
<polygon fill="none" stroke="black" points="183.88,-831.25 183.88,-854 227.62,-854 227.62,-831.25 183.88,-831.25"/>
<text xml:space="preserve" text-anchor="start" x="188.88" y="-838.5" font-family="Linux libertine" font-size="10.00">output: </text>
<polygon fill="none" stroke="black" points="227.62,-831.25 227.62,-854 275.12,-854 275.12,-831.25 227.62,-831.25"/>
<text xml:space="preserve" text-anchor="start" x="232.62" y="-838.5" font-family="Linux libertine" font-size="10.00">(64, 16) </text>
</g>
<!-- 10&#45;&gt;11 -->
<g id="edge15" class="edge">
<title>10&#45;&gt;11</title>
<path fill="none" stroke="black" d="M208,-912.78C208,-905.15 208,-896.4 208,-888.06"/>
<polygon fill="black" stroke="black" points="211.5,-888.21 208,-878.21 204.5,-888.21 211.5,-888.21"/>
</g>
<!-- 12 -->
<g id="node13" class="node">
<title>12</title>
<polygon fill="aliceblue" stroke="none" points="275.12,-795.25 140.88,-795.25 140.88,-749.75 275.12,-749.75 275.12,-795.25"/>
<polygon fill="none" stroke="black" points="140.88,-749.75 140.88,-795.25 183.88,-795.25 183.88,-749.75 140.88,-749.75"/>
<text xml:space="preserve" text-anchor="start" x="147.38" y="-774.75" font-family="Linux libertine" font-size="10.00">argmin</text>
<text xml:space="preserve" text-anchor="start" x="145.88" y="-762" font-family="Linux libertine" font-size="10.00">depth:2</text>
<polygon fill="none" stroke="black" points="183.88,-772.5 183.88,-795.25 227.62,-795.25 227.62,-772.5 183.88,-772.5"/>
<text xml:space="preserve" text-anchor="start" x="193.38" y="-779.75" font-family="Linux libertine" font-size="10.00">input:</text>
<polygon fill="none" stroke="black" points="227.62,-772.5 227.62,-795.25 275.12,-795.25 275.12,-772.5 227.62,-772.5"/>
<text xml:space="preserve" text-anchor="start" x="232.62" y="-779.75" font-family="Linux libertine" font-size="10.00">(64, 16) </text>
<polygon fill="none" stroke="black" points="183.88,-749.75 183.88,-772.5 227.62,-772.5 227.62,-749.75 183.88,-749.75"/>
<text xml:space="preserve" text-anchor="start" x="188.88" y="-757" font-family="Linux libertine" font-size="10.00">output: </text>
<polygon fill="none" stroke="black" points="227.62,-749.75 227.62,-772.5 275.12,-772.5 275.12,-749.75 227.62,-749.75"/>
<text xml:space="preserve" text-anchor="start" x="239.38" y="-757" font-family="Linux libertine" font-size="10.00">(64,) </text>
</g>
<!-- 11&#45;&gt;12 -->
<g id="edge16" class="edge">
<title>11&#45;&gt;12</title>
<path fill="none" stroke="black" d="M208,-831.28C208,-823.65 208,-814.9 208,-806.56"/>
<polygon fill="black" stroke="black" points="211.5,-806.71 208,-796.71 204.5,-806.71 211.5,-806.71"/>
</g>
<!-- 13 -->
<g id="node14" class="node">
<title>13</title>
<polygon fill="#c1ffc1" stroke="none" points="282.25,-713.75 133.75,-713.75 133.75,-668.25 282.25,-668.25 282.25,-713.75"/>
<polygon fill="none" stroke="black" points="133.75,-668.25 133.75,-713.75 191,-713.75 191,-668.25 133.75,-668.25"/>
<text xml:space="preserve" text-anchor="start" x="138.75" y="-693.25" font-family="Linux libertine" font-size="10.00">Embedding</text>
<text xml:space="preserve" text-anchor="start" x="145.88" y="-680.5" font-family="Linux libertine" font-size="10.00">depth:2</text>
<polygon fill="none" stroke="black" points="191,-691 191,-713.75 234.75,-713.75 234.75,-691 191,-691"/>
<text xml:space="preserve" text-anchor="start" x="200.5" y="-698.25" font-family="Linux libertine" font-size="10.00">input:</text>
<polygon fill="none" stroke="black" points="234.75,-691 234.75,-713.75 282.25,-713.75 282.25,-691 234.75,-691"/>
<text xml:space="preserve" text-anchor="start" x="246.5" y="-698.25" font-family="Linux libertine" font-size="10.00">(64,) </text>
<polygon fill="none" stroke="black" points="191,-668.25 191,-691 234.75,-691 234.75,-668.25 191,-668.25"/>
<text xml:space="preserve" text-anchor="start" x="196" y="-675.5" font-family="Linux libertine" font-size="10.00">output: </text>
<polygon fill="none" stroke="black" points="234.75,-668.25 234.75,-691 282.25,-691 282.25,-668.25 234.75,-668.25"/>
<text xml:space="preserve" text-anchor="start" x="239.75" y="-675.5" font-family="Linux libertine" font-size="10.00">(64, 64) </text>
</g>
<!-- 12&#45;&gt;13 -->
<g id="edge17" class="edge">
<title>12&#45;&gt;13</title>
<path fill="none" stroke="black" d="M208,-749.78C208,-742.15 208,-733.4 208,-725.06"/>
<polygon fill="black" stroke="black" points="211.5,-725.21 208,-715.21 204.5,-725.21 211.5,-725.21"/>
</g>
<!-- 13&#45;&gt;14 -->
<g id="edge18" class="edge">
<title>13&#45;&gt;14</title>
<path fill="none" stroke="black" d="M208,-668.28C208,-660.65 208,-651.9 208,-643.56"/>
<polygon fill="black" stroke="black" points="211.5,-643.71 208,-633.71 204.5,-643.71 211.5,-643.71"/>
</g>
<!-- 14&#45;&gt;15 -->
<g id="edge19" class="edge">
<title>14&#45;&gt;15</title>
<path fill="none" stroke="black" d="M211.55,-586.78C212.81,-579.06 214.26,-570.2 215.64,-561.77"/>
<polygon fill="black" stroke="black" points="219.05,-562.62 217.21,-552.19 212.14,-561.5 219.05,-562.62"/>
</g>
<!-- 16 -->
<g id="node17" class="node">
<title>16</title>
<polygon fill="aliceblue" stroke="none" points="293.75,-469.25 148.25,-469.25 148.25,-423.75 293.75,-423.75 293.75,-469.25"/>
<polygon fill="none" stroke="black" points="148.25,-423.75 148.25,-469.25 191.25,-469.25 191.25,-423.75 148.25,-423.75"/>
<text xml:space="preserve" text-anchor="start" x="155.5" y="-448.75" font-family="Linux libertine" font-size="10.00">detach</text>
<text xml:space="preserve" text-anchor="start" x="153.25" y="-436" font-family="Linux libertine" font-size="10.00">depth:2</text>
<polygon fill="none" stroke="black" points="191.25,-446.5 191.25,-469.25 235,-469.25 235,-446.5 191.25,-446.5"/>
<text xml:space="preserve" text-anchor="start" x="200.75" y="-453.75" font-family="Linux libertine" font-size="10.00">input:</text>
<polygon fill="none" stroke="black" points="235,-446.5 235,-469.25 293.75,-469.25 293.75,-446.5 235,-446.5"/>
<text xml:space="preserve" text-anchor="start" x="240" y="-453.75" font-family="Linux libertine" font-size="10.00">(1, 64, 64) </text>
<polygon fill="none" stroke="black" points="191.25,-423.75 191.25,-446.5 235,-446.5 235,-423.75 191.25,-423.75"/>
<text xml:space="preserve" text-anchor="start" x="196.25" y="-431" font-family="Linux libertine" font-size="10.00">output: </text>
<polygon fill="none" stroke="black" points="235,-423.75 235,-446.5 293.75,-446.5 293.75,-423.75 235,-423.75"/>
<text xml:space="preserve" text-anchor="start" x="240" y="-431" font-family="Linux libertine" font-size="10.00">(1, 64, 64) </text>
</g>
<!-- 15&#45;&gt;16 -->
<g id="edge20" class="edge">
<title>15&#45;&gt;16</title>
<path fill="none" stroke="black" d="M221,-505.28C221,-497.65 221,-488.9 221,-480.56"/>
<polygon fill="black" stroke="black" points="224.5,-480.71 221,-470.71 217.5,-480.71 224.5,-480.71"/>
</g>
<!-- 16&#45;&gt;17 -->
<g id="edge21" class="edge">
<title>16&#45;&gt;17</title>
<path fill="none" stroke="black" d="M221,-423.78C221,-416.15 221,-407.4 221,-399.06"/>
<polygon fill="black" stroke="black" points="224.5,-399.21 221,-389.21 217.5,-399.21 224.5,-399.21"/>
</g>
<!-- 18 -->
<g id="node19" class="node">
<title>18</title>
<polygon fill="#c1ffc1" stroke="none" points="293.75,-296 148.25,-296 148.25,-250.5 293.75,-250.5 293.75,-296"/>
<polygon fill="none" stroke="black" points="148.25,-250.5 148.25,-296 191.25,-296 191.25,-250.5 148.25,-250.5"/>
<text xml:space="preserve" text-anchor="start" x="153.62" y="-275.5" font-family="Linux libertine" font-size="10.00">Conv1d</text>
<text xml:space="preserve" text-anchor="start" x="153.25" y="-262.75" font-family="Linux libertine" font-size="10.00">depth:2</text>
<polygon fill="none" stroke="black" points="191.25,-273.25 191.25,-296 235,-296 235,-273.25 191.25,-273.25"/>
<text xml:space="preserve" text-anchor="start" x="200.75" y="-280.5" font-family="Linux libertine" font-size="10.00">input:</text>
<polygon fill="none" stroke="black" points="235,-273.25 235,-296 293.75,-296 293.75,-273.25 235,-273.25"/>
<text xml:space="preserve" text-anchor="start" x="240" y="-280.5" font-family="Linux libertine" font-size="10.00">(1, 64, 64) </text>
<polygon fill="none" stroke="black" points="191.25,-250.5 191.25,-273.25 235,-273.25 235,-250.5 191.25,-250.5"/>
<text xml:space="preserve" text-anchor="start" x="196.25" y="-257.75" font-family="Linux libertine" font-size="10.00">output: </text>
<polygon fill="none" stroke="black" points="235,-250.5 235,-273.25 293.75,-273.25 293.75,-250.5 235,-250.5"/>
<text xml:space="preserve" text-anchor="start" x="240" y="-257.75" font-family="Linux libertine" font-size="10.00">(1, 64, 64) </text>
</g>
<!-- 17&#45;&gt;18 -->
<g id="edge22" class="edge">
<title>17&#45;&gt;18</title>
<path fill="none" stroke="black" d="M221,-342.27C221,-331.69 221,-318.74 221,-306.99"/>
<polygon fill="black" stroke="black" points="224.5,-307.29 221,-297.29 217.5,-307.29 224.5,-307.29"/>
</g>
<!-- 19 -->
<g id="node20" class="node">
<title>19</title>
<polygon fill="#c1ffc1" stroke="none" points="293.75,-214.5 148.25,-214.5 148.25,-169 293.75,-169 293.75,-214.5"/>
<polygon fill="none" stroke="black" points="148.25,-169 148.25,-214.5 191.25,-214.5 191.25,-169 148.25,-169"/>
<text xml:space="preserve" text-anchor="start" x="158.12" y="-194" font-family="Linux libertine" font-size="10.00">ReLU</text>
<text xml:space="preserve" text-anchor="start" x="153.25" y="-181.25" font-family="Linux libertine" font-size="10.00">depth:2</text>
<polygon fill="none" stroke="black" points="191.25,-191.75 191.25,-214.5 235,-214.5 235,-191.75 191.25,-191.75"/>
<text xml:space="preserve" text-anchor="start" x="200.75" y="-199" font-family="Linux libertine" font-size="10.00">input:</text>
<polygon fill="none" stroke="black" points="235,-191.75 235,-214.5 293.75,-214.5 293.75,-191.75 235,-191.75"/>
<text xml:space="preserve" text-anchor="start" x="240" y="-199" font-family="Linux libertine" font-size="10.00">(1, 64, 64) </text>
<polygon fill="none" stroke="black" points="191.25,-169 191.25,-191.75 235,-191.75 235,-169 191.25,-169"/>
<text xml:space="preserve" text-anchor="start" x="196.25" y="-176.25" font-family="Linux libertine" font-size="10.00">output: </text>
<polygon fill="none" stroke="black" points="235,-169 235,-191.75 293.75,-191.75 293.75,-169 235,-169"/>
<text xml:space="preserve" text-anchor="start" x="240" y="-176.25" font-family="Linux libertine" font-size="10.00">(1, 64, 64) </text>
</g>
<!-- 18&#45;&gt;19 -->
<g id="edge23" class="edge">
<title>18&#45;&gt;19</title>
<path fill="none" stroke="black" d="M221,-250.53C221,-242.9 221,-234.15 221,-225.81"/>
<polygon fill="black" stroke="black" points="224.5,-225.96 221,-215.96 217.5,-225.96 224.5,-225.96"/>
</g>
<!-- 20 -->
<g id="node21" class="node">
<title>20</title>
<polygon fill="#c1ffc1" stroke="none" points="293.75,-133 148.25,-133 148.25,-87.5 293.75,-87.5 293.75,-133"/>
<polygon fill="none" stroke="black" points="148.25,-87.5 148.25,-133 191.25,-133 191.25,-87.5 148.25,-87.5"/>
<text xml:space="preserve" text-anchor="start" x="153.62" y="-112.5" font-family="Linux libertine" font-size="10.00">Conv1d</text>
<text xml:space="preserve" text-anchor="start" x="153.25" y="-99.75" font-family="Linux libertine" font-size="10.00">depth:2</text>
<polygon fill="none" stroke="black" points="191.25,-110.25 191.25,-133 235,-133 235,-110.25 191.25,-110.25"/>
<text xml:space="preserve" text-anchor="start" x="200.75" y="-117.5" font-family="Linux libertine" font-size="10.00">input:</text>
<polygon fill="none" stroke="black" points="235,-110.25 235,-133 293.75,-133 293.75,-110.25 235,-110.25"/>
<text xml:space="preserve" text-anchor="start" x="240" y="-117.5" font-family="Linux libertine" font-size="10.00">(1, 64, 64) </text>
<polygon fill="none" stroke="black" points="191.25,-87.5 191.25,-110.25 235,-110.25 235,-87.5 191.25,-87.5"/>
<text xml:space="preserve" text-anchor="start" x="196.25" y="-94.75" font-family="Linux libertine" font-size="10.00">output: </text>
<polygon fill="none" stroke="black" points="235,-87.5 235,-110.25 293.75,-110.25 293.75,-87.5 235,-87.5"/>
<text xml:space="preserve" text-anchor="start" x="242.62" y="-94.75" font-family="Linux libertine" font-size="10.00">(1, 1, 64) </text>
</g>
<!-- 19&#45;&gt;20 -->
<g id="edge24" class="edge">
<title>19&#45;&gt;20</title>
<path fill="none" stroke="black" d="M221,-169.03C221,-161.4 221,-152.65 221,-144.31"/>
<polygon fill="black" stroke="black" points="224.5,-144.46 221,-134.46 217.5,-144.46 224.5,-144.46"/>
</g>
<!-- 21 -->
<g id="node22" class="node">
<title>21</title>
<polygon fill="lightyellow" stroke="none" points="280.12,-51.5 161.88,-51.5 161.88,-16 280.12,-16 280.12,-51.5"/>
<polygon fill="none" stroke="black" points="161.88,-16 161.88,-51.5 229.62,-51.5 229.62,-16 161.88,-16"/>
<text xml:space="preserve" text-anchor="start" x="166.88" y="-36" font-family="Linux libertine" font-size="10.00">output&#45;tensor</text>
<text xml:space="preserve" text-anchor="start" x="179.25" y="-23.25" font-family="Linux libertine" font-size="10.00">depth:0</text>
<polygon fill="none" stroke="black" points="229.62,-16 229.62,-51.5 280.12,-51.5 280.12,-16 229.62,-16"/>
<text xml:space="preserve" text-anchor="start" x="234.62" y="-29.62" font-family="Linux libertine" font-size="10.00">(1, 1, 64)</text>
</g>
<!-- 20&#45;&gt;21 -->
<g id="edge25" class="edge">
<title>20&#45;&gt;21</title>
<path fill="none" stroke="black" d="M221,-87.7C221,-79.85 221,-70.85 221,-62.54"/>
<polygon fill="black" stroke="black" points="224.5,-62.56 221,-52.56 217.5,-62.56 224.5,-62.56"/>
</g>
</g>
</svg>
